<svg width="16" height="13" viewBox="0 0 16 13" fill="none" xmlns="http://www.w3.org/2000/svg">
<path d="M15.6155 3.58055L14.1654 2.61799C13.8951 1.7645 13.3284 1.03586 12.5677 0.563775C11.807 0.0916894 10.9025 -0.0926954 10.0178 0.0439474C9.13297 0.18059 8.32626 0.629245 7.74343 1.30882C7.16061 1.98839 6.84012 2.85405 6.83989 3.74932V4.82439L0.951987 12.1874C0.893255 12.2607 0.856381 12.3492 0.845592 12.4425C0.834803 12.5359 0.850536 12.6304 0.890987 12.7152C0.931438 12.8 0.99497 12.8717 1.0743 12.9221C1.15363 12.9724 1.24555 12.9994 1.33951 12.9999H7.83996C9.56297 12.9966 11.2145 12.3107 12.4328 11.0924C13.6512 9.87401 14.3371 8.22251 14.3404 6.4995V5.26817L15.6155 4.41811C15.6851 4.37267 15.7423 4.31058 15.7819 4.23746C15.8215 4.16433 15.8423 4.08249 15.8423 3.99933C15.8423 3.91618 15.8215 3.83433 15.7819 3.76121C15.7423 3.68809 15.6851 3.62599 15.6155 3.58055ZM7.7212 7.81834L5.22103 10.8185C5.13216 10.9037 5.01502 10.953 4.89203 10.9572C4.76904 10.9613 4.64884 10.92 4.55443 10.841C4.46002 10.7621 4.39803 10.6511 4.38033 10.5294C4.36262 10.4076 4.39045 10.2836 4.45848 10.181L6.95865 7.1808C6.99752 7.1222 7.04832 7.07246 7.10772 7.03482C7.16713 6.99719 7.2338 6.97251 7.3034 6.96239C7.37299 6.95227 7.44393 6.95695 7.51159 6.97611C7.57925 6.99527 7.64211 7.02849 7.69606 7.0736C7.75001 7.11871 7.79384 7.17469 7.82469 7.23788C7.85554 7.30108 7.87271 7.37007 7.87508 7.44035C7.87745 7.51064 7.86497 7.58063 7.83846 7.64576C7.81194 7.7109 7.77199 7.7697 7.7212 7.81834ZM11.0902 3.99933C10.9418 3.99933 10.7968 3.95534 10.6735 3.87293C10.5501 3.79051 10.454 3.67337 10.3972 3.53631C10.3405 3.39926 10.3256 3.24845 10.3545 3.10295C10.3835 2.95746 10.4549 2.82381 10.5598 2.71892C10.6647 2.61402 10.7984 2.54258 10.9439 2.51364C11.0893 2.4847 11.2402 2.49955 11.3772 2.55632C11.5143 2.61309 11.6314 2.70923 11.7138 2.83258C11.7962 2.95592 11.8402 3.10094 11.8402 3.24928C11.8402 3.44821 11.7612 3.63899 11.6205 3.77965C11.4799 3.92031 11.2891 3.99933 11.0902 3.99933Z" fill="white"/>
</svg>
