<svg width="15" height="13" viewBox="0 0 15 13" fill="none" xmlns="http://www.w3.org/2000/svg">
<path d="M11.7304 0L8.54861 2.86364V9.86364L11.7304 7V0ZM3.77588 1.90909C2.53497 1.90909 1.19861 2.16364 0.275879 2.86364V12.1927C0.275879 12.3518 0.43497 12.5109 0.594061 12.5109C0.657697 12.5109 0.689515 12.4664 0.753152 12.4664C1.61224 12.0527 2.85315 11.7727 3.77588 11.7727C5.01679 11.7727 6.35315 12.0273 7.27588 12.7273C8.13497 12.1864 9.69406 11.7727 10.7759 11.7727C11.8259 11.7727 12.9077 11.97 13.7986 12.4473C13.8622 12.4791 13.8941 12.4664 13.9577 12.4664C14.1168 12.4664 14.2759 12.3073 14.2759 12.1482V2.86364C13.8941 2.57727 13.4804 2.38636 13.0032 2.22727V10.8182C12.3032 10.5955 11.5395 10.5 10.7759 10.5C9.69406 10.5 8.13497 10.9136 7.27588 11.4545V2.86364C6.35315 2.16364 5.01679 1.90909 3.77588 1.90909Z" fill="white"/>
</svg>
