<svg width="19" height="18" viewBox="0 0 19 18" fill="none" xmlns="http://www.w3.org/2000/svg">
<path fill-rule="evenodd" clip-rule="evenodd" d="M10.9205 2.16376C12.6455 1.93951 14.264 2.32126 15.1542 3.21151C15.7467 3.80476 16.0392 4.49476 16.0242 5.25151C16.0115 5.97226 15.7205 6.67201 15.3207 7.32451C14.7492 8.25826 13.8567 9.24676 12.8682 10.2608L12.3215 10.8158L11.1095 12.0285L10.5912 12.54C9.55772 13.5495 8.54972 14.4645 7.59947 15.0458C6.94697 15.4455 6.24722 15.7358 5.52647 15.75C4.76972 15.765 4.07972 15.4725 3.48647 14.8793C2.59622 13.989 2.21447 12.3705 2.43872 10.6455C2.66897 8.87551 3.54197 6.86926 5.34272 5.06776C7.14422 3.26776 9.15122 2.39401 10.9205 2.16376V2.16376ZM4.54322 8.74876C4.28841 9.29461 4.10152 9.86965 3.98672 10.461C4.30172 10.731 4.67597 10.9395 5.10572 11.0835C5.29449 11.1465 5.50054 11.1319 5.67853 11.0429C5.85653 10.9539 5.99189 10.7979 6.05485 10.6091C6.1178 10.4204 6.10319 10.2143 6.01423 10.0363C5.92527 9.85833 5.76924 9.72297 5.58047 9.66001C5.08022 9.49351 4.74647 9.20101 4.54322 8.74801V8.74876ZM6.79322 5.75926C6.41519 6.0999 6.06274 6.46789 5.73872 6.86026C5.88422 7.04851 6.04322 7.22701 6.20447 7.38826C6.64322 7.82626 7.20422 8.24701 7.75697 8.43076C7.93866 8.49211 8.13695 8.48152 8.31108 8.40119C8.48521 8.32086 8.62195 8.17688 8.6932 7.99884C8.76445 7.82081 8.7648 7.62224 8.69418 7.44395C8.62355 7.26567 8.48732 7.12121 8.31347 7.04026L8.23172 7.00801C7.98947 6.92776 7.62272 6.68551 7.26572 6.32776C7.09023 6.15397 6.93199 5.96358 6.79322 5.75926V5.75926ZM10.1082 3.86176C9.64472 3.99526 9.16397 4.18426 8.67797 4.43776C9.06797 5.07301 9.65222 5.52676 10.409 5.77951C10.5028 5.8122 10.6021 5.82592 10.7013 5.8199C10.8004 5.81387 10.8974 5.78822 10.9865 5.74441C11.0757 5.70061 11.1552 5.63953 11.2206 5.56473C11.2859 5.48993 11.3358 5.4029 11.3672 5.30868C11.3987 5.21446 11.4111 5.11493 11.4037 5.01587C11.3964 4.91682 11.3694 4.8202 11.3245 4.73165C11.2795 4.64309 11.2174 4.56434 11.1417 4.49999C11.066 4.43563 10.9784 4.38695 10.8837 4.35676C10.5582 4.24801 10.3032 4.08676 10.1082 3.86176V3.86176Z" fill="white"/>
</svg>
