<svg width="21" height="18" viewBox="0 0 21 18" fill="none" xmlns="http://www.w3.org/2000/svg">
<path d="M11.5317 3.7107L16.0555 0.192619C16.2316 0.0557973 16.4516 -0.0120644 16.6742 0.00176327C16.8968 0.015591 17.1067 0.110158 17.2645 0.267725L20.0078 3.01002C20.1656 3.1679 20.2603 3.37798 20.2741 3.60079C20.2879 3.82359 20.2199 4.04377 20.0829 4.21996L16.5657 8.74282C16.8137 9.75438 16.8286 10.8091 16.6092 11.8272C16.3899 12.8454 15.9421 13.8004 15.2996 14.6201C14.6571 15.4398 13.8367 16.1028 12.9005 16.5591C11.9642 17.0153 10.9365 17.2528 9.89497 17.2536C6.68739 17.2536 2.5657 15.8779 0.275879 14.504C3.92128 11.7562 3.06672 10.0984 3.48163 8.55048C4.45069 4.93256 7.91656 2.81951 11.5317 3.7107ZM14.6578 5.43174C14.7173 5.48944 14.7769 5.54898 14.8346 5.60943L15.8742 6.64809L18.1411 3.7336L16.5419 2.13439L13.6274 4.40132L14.6578 5.43174Z" fill="#ECB236" fill-opacity="0.8"/>
</svg>
