<svg width="16" height="14" viewBox="0 0 16 14" fill="none" xmlns="http://www.w3.org/2000/svg">
<path d="M14.7329 0C13.2871 0 11.6581 0.800935 9.9069 2.36887C8.67834 3.46846 7.62627 4.72416 6.9 5.67442C6.29082 5.48901 5.6467 5.44877 5.01918 5.55695C4.39167 5.66512 3.79819 5.91869 3.28625 6.29737C2.77431 6.67604 2.35813 7.1693 2.07102 7.73767C1.78391 8.30604 1.63384 8.93373 1.63283 9.5705C1.63283 11.6882 0.533239 12.6317 0.478938 12.6792C0.390509 12.7476 0.326314 12.8424 0.295773 12.9499C0.265233 13.0574 0.269956 13.1719 0.309249 13.2765C0.343964 13.3839 0.412078 13.4774 0.503655 13.5433C0.595231 13.6092 0.70548 13.6442 0.818318 13.6431H5.70538C6.34215 13.642 6.96984 13.492 7.53821 13.2049C8.10658 12.9177 8.59984 12.5016 8.97851 11.9896C9.35719 11.4777 9.61076 10.8842 9.71893 10.2567C9.8271 9.62918 9.78687 8.98506 9.60146 8.37588C10.5517 7.64961 11.8074 6.59754 12.907 5.36898C14.4749 3.61778 15.2759 1.98876 15.2759 0.543007C15.2759 0.398993 15.2187 0.260877 15.1168 0.159043C15.015 0.0572095 14.8769 0 14.7329 0V0ZM7.90456 6.14955C8.1014 5.89841 8.33218 5.61333 8.59689 5.30111C9.14019 5.66792 9.60796 6.13569 9.97477 6.67899C9.66254 6.9437 9.37747 7.17448 9.12632 7.37132C8.81214 6.88056 8.39532 6.46373 7.90456 6.14955V6.14955ZM10.7961 5.95271C10.39 5.38365 9.89223 4.88592 9.32316 4.47981C10.6535 3.04084 12.4455 1.46612 14.1288 1.1471C13.8098 2.83042 12.235 4.62235 10.7961 5.95271V5.95271Z" fill="white"/>
</svg>
