<svg width="25" height="24" viewBox="0 0 25 24" fill="none" xmlns="http://www.w3.org/2000/svg">
<g clip-path="url(#clip0_200_8722)">
<path fill-rule="evenodd" clip-rule="evenodd" d="M3.27588 5C3.27588 4.46957 3.48659 3.96086 3.86167 3.58579C4.23674 3.21071 4.74545 3 5.27588 3H19.2759C19.8063 3 20.315 3.21071 20.6901 3.58579C21.0652 3.96086 21.2759 4.46957 21.2759 5V16C21.2759 16.5304 21.0652 17.0391 20.6901 17.4142C20.315 17.7893 19.8063 18 19.2759 18H15.2759V19H16.2759C16.5411 19 16.7955 19.1054 16.983 19.2929C17.1705 19.4804 17.2759 19.7348 17.2759 20C17.2759 20.2652 17.1705 20.5196 16.983 20.7071C16.7955 20.8946 16.5411 21 16.2759 21H8.27588C8.01066 21 7.75631 20.8946 7.56877 20.7071C7.38124 20.5196 7.27588 20.2652 7.27588 20C7.27588 19.7348 7.38124 19.4804 7.56877 19.2929C7.75631 19.1054 8.01066 19 8.27588 19H9.27588V18H5.27588C4.74545 18 4.23674 17.7893 3.86167 17.4142C3.48659 17.0391 3.27588 16.5304 3.27588 16V5ZM13.2759 19V18H11.2759V19H13.2759Z" fill="#B8405E"/>
</g>
<defs>
<clipPath id="clip0_200_8722">
<rect width="24" height="24" fill="white" transform="translate(0.275879)"/>
</clipPath>
</defs>
</svg>
