<svg width="19" height="18" viewBox="0 0 19 18" fill="none" xmlns="http://www.w3.org/2000/svg">
<path d="M1.68213 6.46875C1.68213 8.62031 2.92666 10.8281 5.38057 13.0359C6.49485 14.0377 7.70813 14.9235 9.00166 15.6797C9.08569 15.7258 9.18001 15.75 9.27588 15.75C9.37175 15.75 9.46607 15.7258 9.5501 15.6797C9.85244 15.5109 16.8696 11.5242 16.8696 6.46875C16.8696 5.58331 16.591 4.72031 16.0733 4.002C15.5556 3.2837 14.825 2.74649 13.985 2.46649C13.145 2.18649 12.2382 2.17789 11.393 2.4419C10.5478 2.70591 9.80714 3.22915 9.27588 3.9375C8.74461 3.22915 8.00394 2.70591 7.15877 2.4419C6.31361 2.17789 5.4068 2.18649 4.56679 2.46649C3.72679 2.74649 2.99618 3.2837 2.47845 4.002C1.96072 4.72031 1.68213 5.58331 1.68213 6.46875Z" fill="#B8405E" fill-opacity="0.7"/>
</svg>
