<svg width="30" height="22" viewBox="0 0 30 22" fill="none" xmlns="http://www.w3.org/2000/svg">
<path d="M29.2662 9.1328C29.1066 6.15835 26.3697 3.92837 23.3162 3.92837H22.8444C20.1851 3.92837 17.5957 3.13037 15.4062 1.65763C13.2921 0.235473 10.5708 -0.38623 7.6925 0.248241C6.78575 0.447618 0.271853 2.2705 0.275881 9.42843C0.277895 12.9126 2.2233 15.9499 5.10869 17.5808V21.2143C5.10869 21.6484 5.46917 22 5.91424 22H6.71979C7.16486 22 7.52534 21.6484 7.52534 21.2143V18.5497C8.29867 18.7442 9.10624 18.8571 9.942 18.8571C10.2159 18.8571 10.4797 18.8213 10.7476 18.7992V21.2143C10.7476 21.6484 11.108 22 11.5531 22H12.3587C12.8037 22 13.1642 21.6484 13.1642 21.2143V18.2958C13.8811 18.0473 14.5679 17.7365 15.1952 17.3377C17.4981 15.8738 20.1055 14.9285 22.8545 14.9285C24.1373 14.9285 23.6605 14.9133 24.015 14.8902L27.7613 21.5904C27.9053 21.8473 28.1792 22 28.4687 22C28.5346 22 28.6016 21.9921 28.6676 21.9754C29.0245 21.8871 29.2742 21.5733 29.2742 21.2143C29.2742 21.2143 29.2813 9.41665 29.2662 9.1328ZM23.6354 10.607C22.9683 10.607 22.427 10.0791 22.427 9.42843C22.427 8.77726 22.9683 8.24985 23.6354 8.24985C24.3025 8.24985 24.8437 8.77726 24.8437 9.42843C24.8437 10.0791 24.3025 10.607 23.6354 10.607ZM27.6631 18.1328L25.6563 14.544C26.4175 14.2577 27.1028 13.827 27.6631 13.2682V18.1328Z" fill="#ECB236"/>
</svg>
