<svg width="19" height="16" viewBox="0 0 19 16" fill="none" xmlns="http://www.w3.org/2000/svg">
<path d="M17.4617 8.71735C18.014 8.71735 18.4617 8.26963 18.4617 7.71735C18.4617 7.16506 18.014 6.71735 17.4617 6.71735V8.71735ZM0.583633 7.01024C0.19311 7.40076 0.19311 8.03393 0.583633 8.42445L6.9476 14.7884C7.33812 15.1789 7.97128 15.1789 8.36181 14.7884C8.75233 14.3979 8.75233 13.7647 8.36181 13.3742L2.70495 7.71735L8.36181 2.06049C8.75233 1.66997 8.75233 1.0368 8.36181 0.646278C7.97128 0.255754 7.33812 0.255754 6.9476 0.646278L0.583633 7.01024ZM17.4617 6.71735L1.29074 6.71735V8.71735L17.4617 8.71735V6.71735Z" fill="white" fill-opacity="0.5"/>
</svg>
