<svg width="19" height="14" viewBox="0 0 19 14" fill="none" xmlns="http://www.w3.org/2000/svg">
<path d="M10.722 0.226534C10.8126 0.2725 10.888 0.33923 10.9405 0.41991C10.993 0.500589 11.0207 0.592327 11.0208 0.685754V13.3539C11.0208 13.4473 10.9932 13.539 10.9408 13.6197C10.8884 13.7004 10.8131 13.7672 10.7226 13.8132C10.6321 13.8593 10.5295 13.8829 10.4255 13.8818C10.3214 13.8807 10.2195 13.8548 10.1303 13.8068L4.38849 10.7147H2.19812C1.73014 10.7147 1.28133 10.5479 0.950413 10.2509C0.619499 9.95392 0.433594 9.55115 0.433594 9.13118L0.433594 4.9053C0.433906 4.48551 0.619949 4.083 0.950828 3.78626C1.28171 3.48953 1.73034 3.32284 2.19812 3.32284H4.38849L10.1291 0.232868C10.2184 0.184787 10.3204 0.158865 10.4246 0.157752C10.5288 0.156639 10.6314 0.180376 10.722 0.226534ZM16.7308 3.47697L16.3144 3.10431L15.4827 3.85068L15.8956 4.22227L15.8991 4.22439L15.9226 4.24761C16.0997 4.44187 16.252 4.65326 16.3767 4.87785C16.6355 5.34129 16.9025 6.05176 16.9025 7.0156C16.9025 7.97943 16.6343 8.6899 16.3767 9.15334C16.2775 9.33337 16.1606 9.50508 16.0273 9.6664C15.9865 9.71486 15.9433 9.76171 15.8979 9.80681L15.8956 9.80998L15.4827 10.1795L16.3144 10.9269L16.7308 10.5542L16.3144 10.1805L16.7308 10.5542L16.732 10.5521L16.7343 10.55L16.7402 10.5447L16.7567 10.5299L16.8073 10.4793C16.8484 10.437 16.9037 10.3769 16.9684 10.2998C17.0978 10.1457 17.2637 9.91977 17.4284 9.62523C17.7577 9.03405 18.0789 8.16206 18.0789 7.0156C18.0789 5.86913 17.7589 4.9982 17.4284 4.40596C17.2982 4.16927 17.1446 3.94351 16.9696 3.73138C16.9028 3.65195 16.8318 3.5755 16.7567 3.5023L16.7402 3.48647L16.7343 3.48119L16.732 3.47908C16.732 3.47802 16.7296 3.47697 16.3144 3.85068L16.7308 3.47697Z" fill="#F1D439" fill-opacity="0.8"/>
</svg>
