<svg width="23" height="15" viewBox="0 0 23 15" fill="none" xmlns="http://www.w3.org/2000/svg">
<path d="M4.63129 2.14286H1.04866C0.636987 2.14286 0.225318 2.48571 0.280949 3.04286L2.01663 13.7464C2.01663 13.7464 4.07498 5.86071 4.47552 3.96429C4.59791 3.39643 5.15422 3.21429 5.56589 3.21429H11.307C11.307 3.21429 10.5282 0.985714 10.4503 0.739286C10.3168 0.267857 10.072 0 9.58244 0H5.89967C5.49913 0 5.12084 0.246429 5.00958 0.685714C4.90944 1.11429 4.63129 2.14286 4.63129 2.14286ZM10.0609 2.14286H5.61039C5.61039 2.14286 6.07769 1.07143 6.57837 1.07143H8.94825C9.4823 1.07143 10.0609 2.14286 10.0609 2.14286ZM3.1515 14.1964C2.80659 14.7 2.30591 15 1.74961 15H19.2511C19.8519 15 20.2747 14.6679 20.3971 14.1107C20.8866 11.7643 22.2663 5.06786 22.2663 5.06786C22.3442 4.53214 21.9325 4.28571 21.5765 4.28571H17.9827V2.71071C17.9827 2.53929 17.6934 2.14286 17.2484 2.14286H13.0649C12.4864 2.14286 12.097 2.76429 12.097 2.76429L11.307 4.28571H6.40035C6.04431 4.28571 5.6994 4.48929 5.63264 4.82143C5.63264 4.82143 3.86358 12 3.71894 12.675C3.64106 13.0714 3.47416 13.7357 3.1515 14.1964ZM17.2929 4.28571H12.4196C12.4196 4.28571 13.0649 3.21429 13.6769 3.21429H16.2248C17.0147 3.21429 17.2929 4.28571 17.2929 4.28571Z" fill="#ECB236"/>
</svg>
