<svg width="19" height="16" viewBox="0 0 19 16" fill="none" xmlns="http://www.w3.org/2000/svg">
<path d="M1.13049 6.71735C0.578209 6.71735 0.130493 7.16506 0.130493 7.71735C0.130493 8.26963 0.578208 8.71735 1.13049 8.71735L1.13049 6.71735ZM18.0085 8.42446C18.3991 8.03393 18.3991 7.40077 18.0085 7.01024L11.6446 0.64628C11.254 0.255756 10.6209 0.255756 10.2304 0.64628C9.83983 1.0368 9.83983 1.66997 10.2304 2.06049L15.8872 7.71735L10.2304 13.3742C9.83983 13.7647 9.83983 14.3979 10.2304 14.7884C10.6209 15.1789 11.254 15.1789 11.6446 14.7884L18.0085 8.42446ZM1.13049 8.71735L17.3014 8.71735L17.3014 6.71735L1.13049 6.71735L1.13049 8.71735Z" fill="white" fill-opacity="0.5"/>
</svg>
