<svg width="19" height="17" viewBox="0 0 19 17" fill="none" xmlns="http://www.w3.org/2000/svg">
<path d="M10.2461 1.55135e-06C10.5107 1.55135e-06 10.7473 0.15555 10.8364 0.388447L11.4718 2.05188C11.6995 2.10543 11.8948 2.15898 12.0604 2.21507C12.2413 2.27627 12.4744 2.36892 12.7624 2.49557L14.2419 1.75608C14.3627 1.69565 14.501 1.67384 14.636 1.69392C14.771 1.71399 14.8954 1.77487 14.9907 1.86743L16.2921 3.13816C16.4649 3.30731 16.5134 3.55466 16.4163 3.77056L15.7224 5.30649C15.8376 5.50624 15.9294 5.67708 15.9996 5.81988C16.0752 5.97543 16.1688 6.18963 16.2804 6.46587L17.8976 7.12037C18.1406 7.21811 18.2909 7.44761 18.2747 7.69326L18.1559 9.45699C18.1478 9.57157 18.1042 9.68138 18.0306 9.77279C17.957 9.86421 17.8566 9.93321 17.7419 9.97123L16.2102 10.4855C16.1661 10.6852 16.1202 10.8561 16.0716 11.0006C15.9932 11.2237 15.9037 11.4433 15.8034 11.6585L16.5728 13.2649C16.6272 13.3778 16.6418 13.5041 16.6146 13.6254C16.5874 13.7467 16.5198 13.8566 16.4217 13.939L14.9583 15.1732C14.8619 15.2541 14.7417 15.3053 14.6136 15.3199C14.4856 15.3345 14.3559 15.3117 14.2419 15.2548L12.7336 14.5C12.4976 14.618 12.2541 14.7222 12.0046 14.8119L11.3458 15.0448L10.7608 16.5748C10.7175 16.6868 10.6393 16.7839 10.5365 16.8532C10.4337 16.9225 10.3111 16.9609 10.1849 16.9632L8.47493 16.9998C8.3453 17.003 8.2178 16.9682 8.10998 16.9002C8.00216 16.8321 7.91931 16.7342 7.87285 16.6199L7.18347 14.8969C6.94826 14.821 6.71538 14.7388 6.4851 14.6504C6.29675 14.5734 6.11124 14.4904 5.92891 14.4014L4.21897 15.0916C4.1063 15.137 3.98209 15.1505 3.86145 15.1304C3.74082 15.1103 3.62896 15.0575 3.5395 14.9785L2.27414 13.8574C2.17993 13.7743 2.11577 13.6653 2.09074 13.5459C2.06571 13.4264 2.08107 13.3026 2.13465 13.1918L2.86992 11.6789C2.77213 11.4997 2.68147 11.3171 2.59813 11.1315C2.50084 10.9043 2.41081 10.6744 2.32814 10.4421L0.717194 9.97888C0.58625 9.9415 0.472038 9.86433 0.392296 9.75935C0.312555 9.65438 0.271747 9.52747 0.27621 9.39834L0.339207 7.76551C0.343692 7.65897 0.378929 7.55562 0.441109 7.46663C0.503289 7.37764 0.590045 7.3064 0.691995 7.26061L2.38214 6.49392C2.46043 6.22278 2.52883 6.01198 2.58913 5.85813C2.67403 5.65264 2.76832 5.45072 2.87172 5.25294L2.13915 3.79096C2.08355 3.67993 2.06667 3.55512 2.09092 3.43446C2.11518 3.3138 2.17933 3.20352 2.27414 3.11946L3.5377 1.99238C3.62627 1.91348 3.7371 1.86043 3.85685 1.83962C3.9766 1.81881 4.10016 1.83112 4.21267 1.87508L5.92081 2.54147C6.10981 2.42247 6.2808 2.32642 6.4356 2.24907C6.62009 2.15643 6.86668 2.05953 7.17717 1.95498L7.77115 0.390147C7.81506 0.275626 7.89533 0.176699 8.001 0.106872C8.10666 0.0370448 8.23257 -0.00027731 8.36153 1.55135e-06H10.2461ZM9.2975 5.96608C7.79725 5.96608 6.58139 7.10082 6.58139 8.5016C6.58139 9.90238 7.79725 11.038 9.2975 11.038C10.7968 11.038 12.0127 9.90238 12.0127 8.5016C12.0127 7.10082 10.7977 5.96608 9.2975 5.96608Z" fill="#B8405E" fill-opacity="0.7"/>
</svg>
