<svg width="22" height="17" viewBox="0 0 22 17" fill="none" xmlns="http://www.w3.org/2000/svg">
<path d="M20.3213 15.1111V17H18.4122V15.1111H3.13952V17H1.23042V15.1111C0.977263 15.1111 0.734471 15.0116 0.555459 14.8345C0.376447 14.6574 0.275879 14.4171 0.275879 14.1667V2.83334C0.275879 2.58285 0.376447 2.34263 0.555459 2.16551C0.734471 1.9884 0.977263 1.88889 1.23042 1.88889H10.5945C11.1729 1.29093 11.8678 0.815234 12.6373 0.490571C13.4068 0.165909 14.2348 -0.000977077 15.0713 4.79967e-06C15.9079 -0.00103173 16.7359 0.165829 17.5054 0.490495C18.2749 0.815161 18.9698 1.29089 19.5482 1.88889H20.3213C20.5745 1.88889 20.8173 1.9884 20.9963 2.16551C21.1753 2.34263 21.2759 2.58285 21.2759 2.83334V14.1667C21.2759 14.4171 21.1753 14.6574 20.9963 14.8345C20.8173 15.0116 20.5745 15.1111 20.3213 15.1111ZM15.0713 10.3889C15.6354 10.3889 16.194 10.279 16.7151 10.0654C17.2363 9.8518 17.7098 9.53874 18.1087 9.14409C18.5075 8.74944 18.8239 8.28093 19.0398 7.7653C19.2557 7.24966 19.3668 6.69701 19.3668 6.13889C19.3668 5.58077 19.2557 5.02812 19.0398 4.51249C18.8239 3.99685 18.5075 3.52834 18.1087 3.13369C17.7098 2.73904 17.2363 2.42599 16.7151 2.2124C16.194 1.99882 15.6354 1.88889 15.0713 1.88889C13.9321 1.88889 12.8395 2.33666 12.034 3.13369C11.2284 3.93072 10.7759 5.01172 10.7759 6.13889C10.7759 7.26606 11.2284 8.34706 12.034 9.14409C12.8395 9.94112 13.9321 10.3889 15.0713 10.3889ZM15.0713 8.5C14.4384 8.5 13.8314 8.25124 13.3839 7.80845C12.9364 7.36565 12.685 6.7651 12.685 6.13889C12.685 5.51269 12.9364 4.91213 13.3839 4.46933C13.8314 4.02654 14.4384 3.77778 15.0713 3.77778C15.7042 3.77778 16.3112 4.02654 16.7587 4.46933C17.2063 4.91213 17.4577 5.51269 17.4577 6.13889C17.4577 6.7651 17.2063 7.36565 16.7587 7.80845C16.3112 8.25124 15.7042 8.5 15.0713 8.5ZM3.13952 9.44445V11.3333H5.04861V9.44445H3.13952ZM6.9577 9.44445V11.3333H8.86679V9.44445H6.9577Z" fill="#ECB236"/>
</svg>
