<svg width="15" height="14" viewBox="0 0 15 14" fill="none" xmlns="http://www.w3.org/2000/svg">
<path d="M0.275879 12.4444H12.7203V14H0.275879V12.4444ZM12.7203 3.88889V1.55556H11.1648V3.88889H12.7203ZM12.7203 0C13.187 0 13.4981 0.155555 13.8092 0.466667C14.1203 0.777778 14.2759 1.16667 14.2759 1.55556V3.88889C14.2759 4.35556 14.1203 4.66667 13.8092 4.97778C13.4981 5.28889 13.187 5.44444 12.7203 5.44444H11.1648V7.77778C11.1648 8.63333 10.8537 9.33333 10.2314 9.95556C9.60921 10.5778 8.90921 10.8889 8.05366 10.8889H3.38699C2.53143 10.8889 1.83143 10.5778 1.20921 9.95556C0.58699 9.33333 0.275879 8.63333 0.275879 7.77778V0H4.16477V1.86667L2.76477 2.95556C2.68699 3.03333 2.60921 3.18889 2.60921 3.26667V6.61111C2.60921 6.84444 2.76477 7 2.9981 7H6.10921C6.34255 7 6.4981 6.84444 6.4981 6.61111V3.26667C6.4981 3.11111 6.42032 3.03333 6.34255 2.95556L4.94255 1.86667V0H12.7203Z" fill="white"/>
</svg>
