<svg width="25" height="24" viewBox="0 0 25 24" fill="none" xmlns="http://www.w3.org/2000/svg">
<path d="M16.5159 11.51L18.0859 9.93999L14.3359 6.18999L12.7659 7.75999L8.62588 3.62999C7.84588 2.84999 6.57588 2.84999 5.79588 3.62999L3.89588 5.52999C3.11588 6.30999 3.11588 7.57999 3.89588 8.35999L8.02588 12.49L3.42588 17.1C3.32588 17.2 3.27588 17.32 3.27588 17.46V20.5C3.27588 20.78 3.49588 21 3.77588 21H6.81588C6.94588 21 7.07588 20.95 7.16588 20.85L11.7859 16.23L15.9159 20.36C17.2359 21.68 18.6759 20.43 18.7459 20.36L20.6459 18.46C21.4259 17.68 21.4259 16.41 20.6459 15.63L16.5159 11.51V11.51ZM9.45588 11.07L5.31588 6.93999L7.20588 5.03999L8.47588 6.30999L8.00588 6.79999C7.8189 6.98697 7.71386 7.24056 7.71386 7.50499C7.71386 7.76942 7.8189 8.02301 8.00588 8.20999C8.19286 8.39697 8.44645 8.50201 8.71088 8.50201C8.97531 8.50201 9.2289 8.39697 9.41588 8.20999L9.89588 7.72999L11.3459 9.17999L9.45588 11.07V11.07ZM17.3359 18.96L13.2059 14.83L15.1059 12.93L16.5559 14.38L16.0759 14.86C15.9833 14.9526 15.9099 15.0625 15.8598 15.1834C15.8096 15.3044 15.7839 15.4341 15.7839 15.565C15.7839 15.6959 15.8096 15.8256 15.8598 15.9465C15.9099 16.0675 15.9833 16.1774 16.0759 16.27C16.1685 16.3626 16.2784 16.436 16.3993 16.4861C16.5203 16.5362 16.6499 16.562 16.7809 16.562C16.9118 16.562 17.0415 16.5362 17.1624 16.4861C17.2834 16.436 17.3933 16.3626 17.4859 16.27L17.9659 15.79L19.2359 17.06L17.3359 18.96V18.96ZM20.9859 7.03999C21.0786 6.94748 21.1521 6.83759 21.2023 6.71661C21.2525 6.59564 21.2783 6.46596 21.2783 6.33499C21.2783 6.20402 21.2525 6.07434 21.2023 5.95337C21.1521 5.83239 21.0786 5.7225 20.9859 5.62999L18.6459 3.28999C18.1759 2.81999 17.5259 2.99999 17.2359 3.28999L15.4059 5.11999L19.1559 8.86999L20.9859 7.03999V7.03999Z" fill="#B8405E"/>
</svg>
