<svg width="71" height="36" viewBox="0 0 71 36" fill="none" xmlns="http://www.w3.org/2000/svg">
<path d="M35.2759 35.4667C15.9384 35.4667 0.275879 27.5333 0.275879 17.7333C0.275879 7.93333 15.9384 0 35.2759 0C54.6134 0 70.2759 7.93333 70.2759 17.7333C70.2759 27.5333 54.6134 35.4667 35.2759 35.4667ZM20.1384 12.2792C21.7134 12.2792 22.7925 12.5708 23.3175 13.1833C23.8425 13.7667 23.9592 14.8167 23.6967 16.1875C23.405 17.7333 22.8509 18.725 22.005 19.3667C21.1884 20.0083 19.9342 20.3292 18.2425 20.3292H15.705L17.2509 12.2792H20.1384ZM9.93005 28.4667H14.13L15.1217 23.3625H18.7092C20.2842 23.3625 21.5675 23.1875 22.5884 22.8667C23.6092 22.5167 24.5425 21.9625 25.3884 21.175C26.0884 20.5333 26.6425 19.8333 27.08 19.0458C27.5175 18.2875 27.8384 17.4125 27.9842 16.4792C28.4509 14.2042 28.13 12.425 27.0217 11.1708C25.8842 9.8875 24.1342 9.275 21.7134 9.275H13.6634L9.93005 28.4667M31.0759 4.17083L27.3425 23.3625H31.4842L33.6425 12.3667H36.9675C38.0175 12.3667 38.7175 12.5417 39.0384 12.8917C39.3592 13.2417 39.4175 13.8833 39.2425 14.8167L37.58 23.3625H41.8092L43.53 14.4083C43.9092 12.6 43.6175 11.2875 42.7425 10.4417C41.8675 9.65417 40.2634 9.275 37.93 9.275H34.2259L35.2759 4.17083H31.0759M52.7759 12.2792C54.38 12.2792 55.43 12.5708 55.955 13.1833C56.48 13.7667 56.5967 14.8167 56.3342 16.1875C56.0425 17.7333 55.4884 18.725 54.6717 19.3667C53.8259 20.0083 52.5717 20.3292 50.88 20.3292H48.4009L49.8592 12.2792H52.7759M42.5675 28.4667H46.7675L47.7592 23.3625H51.3175C52.9217 23.3625 54.2342 23.1875 55.255 22.8667C56.2759 22.5167 57.1509 21.9625 58.0259 21.175C58.7259 20.5333 59.3092 19.8333 59.7175 19.0458C60.155 18.2875 60.4759 17.4125 60.6509 16.4792C61.0884 14.2042 60.7675 12.425 59.6592 11.1708C58.6092 9.8875 56.7717 9.275 54.3509 9.275H46.33L42.5675 28.4667V28.4667Z" fill="white" fill-opacity="0.8"/>
</svg>
