<svg width="51" height="46" viewBox="0 0 51 46" fill="none" xmlns="http://www.w3.org/2000/svg">
<path d="M26.5986 3.2032C30.1418 0.491837 34.3168 -1.10134 37.7759 0.896383C41.235 2.89184 41.9441 7.30547 41.3668 11.7282C41.2986 12.2759 41.2054 12.8396 41.0918 13.4146C41.6463 13.6055 42.1827 13.8077 42.6895 14.0191C46.8077 15.7327 50.2759 18.5532 50.2759 22.5464C50.2759 26.5396 46.8077 29.36 42.6895 31.0737C42.1804 31.285 41.6463 31.4873 41.0918 31.6782C41.2054 32.2532 41.2963 32.8146 41.3668 33.3646C41.9441 37.7873 41.235 42.2009 37.7759 44.1964C34.3191 46.1941 30.1395 44.6009 26.5986 41.8918C26.1463 41.5446 25.7051 41.1831 25.2759 40.8077C24.8327 41.1941 24.3918 41.5555 23.9532 41.8918C20.4122 44.6009 16.235 46.1941 12.7759 44.1964C9.31906 42.2009 8.60997 37.7873 9.18497 33.3646C9.25946 32.7996 9.35193 32.2372 9.46224 31.6782C8.90542 31.4873 8.37133 31.285 7.86224 31.0737C3.74406 29.36 0.275879 26.5396 0.275879 22.5464C0.275879 18.5532 3.74406 15.7327 7.86224 14.0191C8.37133 13.8077 8.9077 13.6055 9.46224 13.4146C9.34861 12.8396 9.2577 12.2782 9.18497 11.7282C8.60997 7.30547 9.31906 2.89184 12.7759 0.896383C16.235 -1.10134 20.4122 0.491837 23.9532 3.20093C24.3918 3.53729 24.8327 3.89866 25.2759 4.28502C25.7191 3.89866 26.1622 3.53729 26.5986 3.2032V3.2032ZM13.8668 32.8577C13.7986 33.2327 13.7418 33.5987 13.6941 33.9509C13.1645 38.0259 14.1622 39.7464 15.0509 40.26C15.9418 40.7737 17.9304 40.7782 21.1941 38.2827C21.4871 38.0576 21.7743 37.8249 22.0554 37.585C20.9344 36.3141 19.8792 34.9866 18.8941 33.6077C17.2066 33.4438 15.5286 33.1935 13.8668 32.8577V32.8577ZM36.6918 32.8577C35.1236 33.1759 33.4463 33.4305 31.6645 33.6077C30.6191 35.0623 29.5622 36.3896 28.5032 37.585C28.7918 37.8327 29.0804 38.0623 29.3622 38.2805C32.6259 40.7782 34.6168 40.7737 35.5054 40.26C36.3963 39.7464 37.3918 38.0259 36.8622 33.9509C36.8147 33.5851 36.7579 33.2206 36.6918 32.8577V32.8577ZM25.2759 15.7282C23.9304 15.7282 22.6395 15.7691 21.4077 15.8441C20.7259 16.8737 20.0441 17.9737 19.3713 19.1396C18.7253 20.2569 18.1136 21.3938 17.5372 22.5487C18.0872 23.6532 18.6986 24.7896 19.3713 25.9555C20.0441 27.1214 20.7236 28.2191 21.4077 29.2509C23.985 29.4028 26.569 29.4028 29.1463 29.2509C29.8282 28.2191 30.51 27.1214 31.1804 25.9555C31.8272 24.8381 32.4396 23.7012 33.0168 22.5464C32.4396 21.3915 31.8272 20.2546 31.1804 19.1373C30.5363 18.019 29.8579 16.9208 29.1463 15.8441C27.8577 15.7663 26.5669 15.7276 25.2759 15.7282V15.7282ZM10.6395 17.8191C10.2923 17.9431 9.94829 18.0757 9.6077 18.2168C5.81224 19.7941 4.82133 21.5191 4.82133 22.5464C4.82133 23.5737 5.81452 25.2987 9.6077 26.8759C9.93724 27.0123 10.2827 27.1464 10.6395 27.2737C11.1803 25.667 11.8031 24.0892 12.5054 22.5464C11.8039 21.0035 11.1818 19.4257 10.6418 17.8191H10.6395ZM39.9122 17.8191C39.3722 19.4257 38.7502 21.0035 38.0486 22.5464C38.785 24.1759 39.4077 25.7577 39.9122 27.2737C40.2595 27.1498 40.6035 27.0172 40.9441 26.8759C44.7395 25.2987 45.7304 23.5737 45.7304 22.5464C45.7304 21.5191 44.7395 19.7964 40.9441 18.2168C40.6036 18.0755 40.2595 17.9429 39.9122 17.8191V17.8191ZM25.2759 19.1373C26.18 19.1373 27.0471 19.4965 27.6865 20.1358C28.3258 20.7751 28.685 21.6422 28.685 22.5464C28.685 23.4505 28.3258 24.3176 27.6865 24.957C27.0471 25.5963 26.18 25.9555 25.2759 25.9555C24.3717 25.9555 23.5046 25.5963 22.8653 24.957C22.226 24.3176 21.8668 23.4505 21.8668 22.5464C21.8668 21.6422 22.226 20.7751 22.8653 20.1358C23.5046 19.4965 24.3717 19.1373 25.2759 19.1373ZM15.0486 4.83275C14.16 5.34638 13.1622 7.06684 13.6918 11.1418C13.7372 11.4964 13.7963 11.86 13.8645 12.235C15.4304 11.9168 17.11 11.6623 18.8918 11.485C19.8767 10.1059 20.9319 8.77844 22.0532 7.50775C21.7719 7.26869 21.4847 7.0368 21.1918 6.81229C17.9282 4.31456 15.9395 4.31911 15.0486 4.83275ZM35.5032 4.83275C34.6145 4.31911 32.6236 4.31684 29.36 6.81229C29.0677 7.03678 28.7813 7.26867 28.5009 7.50775C29.56 8.7032 30.6191 10.0327 31.66 11.485C33.4418 11.6623 35.1236 11.9168 36.6895 12.235C36.7555 11.8729 36.8124 11.5091 36.86 11.1441C37.3918 7.06911 36.3941 5.34638 35.5032 4.83275Z" fill="white" fill-opacity="0.8"/>
</svg>
