<svg width="51" height="44" viewBox="0 0 51 44" fill="none" xmlns="http://www.w3.org/2000/svg">
<path d="M9.33286 7.32174e-08H1.94301C1.64976 -8.68383e-05 1.36167 0.0772029 1.10785 0.224065C0.854023 0.370928 0.643441 0.582163 0.497365 0.836443C0.35129 1.09072 0.274893 1.37904 0.275889 1.67229C0.276884 1.96554 0.355237 2.25334 0.503035 2.50662L23.8359 42.5058C23.9826 42.7576 24.1928 42.9665 24.4455 43.1117C24.6981 43.2569 24.9845 43.3333 25.2759 43.3333C25.5673 43.3333 25.8536 43.2569 26.1063 43.1117C26.3589 42.9665 26.5691 42.7576 26.7159 42.5058L50.0487 2.50662C50.1965 2.25334 50.2749 1.96554 50.2759 1.67229C50.2769 1.37904 50.2005 1.09072 50.0544 0.836443C49.9083 0.582163 49.6977 0.370928 49.4439 0.224065C49.1901 0.0772029 48.902 -8.68383e-05 48.6088 7.32174e-08H41.2189L25.2759 26.5728L9.33286 7.32174e-08Z" fill="white" fill-opacity="0.8"/>
<path d="M37.3312 0H27.5747L25.2748 4.60658L22.9715 0H13.2183L25.2748 20.0929L37.3312 0Z" fill="white" fill-opacity="0.8"/>
</svg>
