<svg width="15" height="15" viewBox="0 0 15 15" fill="none" xmlns="http://www.w3.org/2000/svg">
<path d="M7.44637 0.860916C6.55144 0.860916 5.66527 1.04156 4.83847 1.39254C4.01166 1.74352 3.26041 2.25795 2.62759 2.90647C1.34958 4.21622 0.631592 5.99262 0.631592 7.84489C0.631592 10.9318 2.58743 13.5508 5.2929 14.4797C5.63364 14.5355 5.74268 14.319 5.74268 14.1305V12.9502C3.85498 13.3692 3.45291 12.0143 3.45291 12.0143C3.13943 11.2042 2.69647 10.9877 2.69647 10.9877C2.07633 10.5547 2.74417 10.5686 2.74417 10.5686C3.42565 10.6175 3.78683 11.288 3.78683 11.288C4.37972 12.3495 5.38149 12.0353 5.76994 11.8677C5.83127 11.4137 6.00845 11.1064 6.19927 10.9318C4.68639 10.7572 3.09854 10.1566 3.09854 7.49569C3.09854 6.72047 3.3575 6.09889 3.80046 5.60303C3.73232 5.42843 3.4938 4.7021 3.86861 3.75926C3.86861 3.75926 4.44105 3.5707 5.74268 4.47163C6.28104 4.31798 6.86711 4.24116 7.44637 4.24116C8.02563 4.24116 8.6117 4.31798 9.15007 4.47163C10.4517 3.5707 11.0241 3.75926 11.0241 3.75926C11.3989 4.7021 11.1604 5.42843 11.0923 5.60303C11.5352 6.09889 11.7942 6.72047 11.7942 7.49569C11.7942 10.1636 10.1995 10.7502 8.67985 10.9248C8.92518 11.1413 9.15007 11.5673 9.15007 12.2169V14.1305C9.15007 14.319 9.2591 14.5425 9.60666 14.4797C12.3121 13.5438 14.2612 10.9318 14.2612 7.84489C14.2612 6.92774 14.0849 6.01957 13.7424 5.17224C13.3999 4.3249 12.898 3.55499 12.2651 2.90647C11.6323 2.25795 10.8811 1.74352 10.0543 1.39254C9.22747 1.04156 8.3413 0.860916 7.44637 0.860916Z" fill="white" fill-opacity="0.8"/>
</svg>
