<svg width="15" height="11" viewBox="0 0 15 11" fill="none" xmlns="http://www.w3.org/2000/svg">
<path d="M10.9346 0.210938C9.72596 0.210938 8.42436 0.465351 7.52564 1.16499C6.62692 0.465351 5.32533 0.210938 4.1167 0.210938C3.21798 0.210938 2.26348 0.350865 1.46393 0.713404C1.01147 0.923295 0.707764 1.37488 0.707764 1.89007V9.06452C0.707764 9.89136 1.46393 10.502 2.24489 10.2984C2.8523 10.1394 3.4969 10.0695 4.1167 10.0695C5.0836 10.0695 6.11248 10.2348 6.94302 10.6546C7.31491 10.8454 7.73638 10.8454 8.10206 10.6546C8.9326 10.2285 9.96148 10.0695 10.9284 10.0695C11.5482 10.0695 12.1928 10.1394 12.8002 10.2984C13.5812 10.5083 14.3373 9.89772 14.3373 9.06452V1.89007C14.3373 1.37488 14.0336 0.923295 13.5812 0.713404C12.7878 0.350865 11.8333 0.210938 10.9346 0.210938V0.210938ZM13.1039 8.30764C13.1039 8.70834 12.7444 9.00092 12.3601 8.93095C11.8953 8.84191 11.4118 8.80375 10.9346 8.80375C9.88091 8.80375 8.36238 9.21717 7.52564 9.7578V2.43705C8.36238 1.89643 9.88091 1.483 10.9346 1.483C11.5048 1.483 12.0688 1.54025 12.6081 1.66109C12.8932 1.7247 13.1039 1.98547 13.1039 2.28441V8.30764Z" fill="white" fill-opacity="0.8"/>
<path d="M8.60249 4.32535C8.40554 4.32535 8.22706 4.20263 8.16551 4.00629C8.0855 3.767 8.2209 3.50317 8.46093 3.42954C9.40874 3.12276 10.6335 3.02459 11.7598 3.15344C12.0122 3.18411 12.1968 3.41113 12.166 3.6627C12.1352 3.91426 11.9075 4.09833 11.6552 4.06765C10.6581 3.95107 9.56877 4.04311 8.74405 4.30694C8.69481 4.31308 8.64557 4.32535 8.60249 4.32535V4.32535ZM8.60249 5.95743C8.40554 5.95743 8.22706 5.83472 8.16551 5.63838C8.0855 5.39909 8.2209 5.13525 8.46093 5.06163C9.40259 4.75484 10.6335 4.65667 11.7598 4.78552C12.0122 4.8162 12.1968 5.04322 12.166 5.29478C12.1352 5.54634 11.9075 5.73041 11.6552 5.69973C10.6581 5.58316 9.56877 5.67519 8.74405 5.93903C8.69777 5.95078 8.65024 5.95696 8.60249 5.95743V5.95743ZM8.60249 7.58952C8.40554 7.58952 8.22706 7.46681 8.16551 7.27046C8.0855 7.03117 8.2209 6.76734 8.46093 6.69371C9.40259 6.38693 10.6335 6.28876 11.7598 6.41761C12.0122 6.44829 12.1968 6.67531 12.166 6.92687C12.1352 7.17843 11.9075 7.35636 11.6552 7.33182C10.6581 7.21524 9.56877 7.30728 8.74405 7.57111C8.69777 7.58287 8.65024 7.58905 8.60249 7.58952V7.58952Z" fill="white" fill-opacity="0.8"/>
</svg>
