<svg width="15" height="13" viewBox="0 0 15 13" fill="none" xmlns="http://www.w3.org/2000/svg">
<path d="M14.3818 2.02698C13.8705 2.25839 13.3295 2.41084 12.776 2.47953C13.3577 2.1247 13.7952 1.561 14.0064 0.894149C13.4564 1.22915 12.8557 1.4642 12.23 1.58923C11.9665 1.30159 11.6496 1.07277 11.2986 0.916671C10.9476 0.760571 10.5698 0.680453 10.1881 0.681188C8.64286 0.681188 7.39235 1.96487 7.39235 3.54729C7.39125 3.7674 7.41547 3.98685 7.46447 4.20096C6.35641 4.14685 5.2714 3.85241 4.27884 3.33647C3.28628 2.82054 2.40804 2.09447 1.7003 1.20472C1.45201 1.64073 1.3207 2.13821 1.3201 2.64516C1.3201 3.63898 1.81786 4.51745 2.56947 5.0321C2.12416 5.02109 1.68798 4.89832 1.29795 4.67421V4.7097C1.29795 6.09987 2.26337 7.25636 3.54115 7.51961C3.30086 7.58633 3.05326 7.62014 2.80458 7.62017C2.62813 7.62049 2.45208 7.60266 2.27899 7.56693C2.63421 8.70568 3.66807 9.53387 4.89274 9.55753C3.89761 10.3564 2.67584 10.7882 1.41948 10.785C1.19647 10.7847 0.973668 10.7708 0.752197 10.7436C2.0303 11.5937 3.516 12.0434 5.03245 12.0391C10.1821 12.0391 12.9955 7.67045 12.9955 3.88152C12.9955 3.75729 12.9924 3.63307 12.9867 3.5118C13.5328 3.10719 14.0052 2.60438 14.3818 2.02698V2.02698Z" fill="white" fill-opacity="0.8"/>
</svg>
