<svg width="500" height="500" viewBox="0 0 500 500" fill="none" xmlns="http://www.w3.org/2000/svg">
<path d="M398.418 499.986C395.857 499.986 393.354 498.728 391.865 496.411C391.05 495.142 372.105 464.882 391.449 426.193C406.693 395.703 392.455 372.354 391.841 371.375C389.559 367.733 390.634 362.914 394.262 360.611C397.888 358.309 402.685 359.349 405.008 362.963C405.823 364.232 424.768 394.492 405.424 433.182C390.18 463.671 404.418 487.021 405.032 488C407.314 491.642 406.239 496.461 402.611 498.764C401.309 499.591 399.855 499.986 398.418 499.986Z" fill="#4D5166"/>
<path d="M437.5 375H359.375L388.672 328.125H408.203L437.5 375Z" fill="#BDBDBD"/>
<path d="M492.188 222.991C492.188 281.671 450.214 335.938 398.438 335.938C346.661 335.938 304.688 281.671 304.688 222.991C304.688 164.312 346.661 123.438 398.438 123.438C450.214 123.438 492.188 164.311 492.188 222.991Z" fill="#E2E2E2"/>
<path d="M359.375 218.75C368.004 218.75 375 208.257 375 195.312C375 182.368 368.004 171.875 359.375 171.875C350.746 171.875 343.75 182.368 343.75 195.312C343.75 208.257 350.746 218.75 359.375 218.75Z" fill="#4D5166"/>
<path d="M445.312 218.75C453.942 218.75 460.938 208.257 460.938 195.312C460.938 182.368 453.942 171.875 445.312 171.875C436.683 171.875 429.688 182.368 429.688 195.312C429.688 208.257 436.683 218.75 445.312 218.75Z" fill="#4D5166"/>
<path d="M398.438 304.688C415.696 304.688 429.688 290.696 429.688 273.438C429.688 256.179 415.696 242.188 398.438 242.188C381.179 242.188 367.188 256.179 367.188 273.438C367.188 290.696 381.179 304.688 398.438 304.688Z" fill="#4D5166"/>
<path d="M117.186 500C115.29 500 113.389 499.314 111.887 497.927C111.467 497.539 101.554 488.263 96.584 473.179C91.9512 459.121 90.7295 437.259 111.212 412.937C123.928 397.837 127.877 382.6 122.951 367.649C119.292 356.545 111.959 349.557 111.887 349.489C108.717 346.562 108.521 341.619 111.448 338.449C114.376 335.278 119.319 335.082 122.488 338.011C122.908 338.398 132.821 347.675 137.791 362.759C142.424 376.816 143.646 398.679 123.163 423.001C110.447 438.101 106.498 453.338 111.424 468.288C115.083 479.393 122.416 486.381 122.488 486.448C125.658 489.376 125.854 494.318 122.927 497.488C121.387 499.155 119.289 500 117.186 500Z" fill="#4D5166"/>
<path d="M148.438 359.738H85.9375L109.375 312.863H125L148.438 359.738Z" fill="#C18749"/>
<path d="M190.104 179.688C183.462 179.688 177.239 183.14 171.875 189.142C166.512 183.14 160.289 179.688 153.646 179.688C147.003 179.688 140.78 183.14 135.416 189.142C130.053 183.14 123.83 179.688 117.188 179.688C110.545 179.688 104.322 183.14 98.958 189.142C93.5947 183.14 87.3721 179.688 80.7295 179.688C74.0869 179.688 67.8643 183.14 62.5 189.142C57.1367 183.14 50.9141 179.688 44.2705 179.688C24.1357 179.688 7.8125 211.249 7.8125 250.182C7.8125 289.114 24.1357 320.676 44.2705 320.676C50.9131 320.676 57.1357 317.224 62.5 311.222C67.8633 317.224 74.0859 320.676 80.7295 320.676C87.3721 320.676 93.5947 317.224 98.959 311.222C104.322 317.224 110.545 320.676 117.188 320.676C123.832 320.676 130.054 317.224 135.418 311.222C140.781 317.224 147.004 320.676 153.647 320.676C160.29 320.676 166.513 317.224 171.877 311.222C177.24 317.224 183.463 320.676 190.106 320.676C210.242 320.676 226.564 289.114 226.564 250.182C226.562 211.249 210.239 179.688 190.104 179.688Z" fill="#ECA559"/>
<path d="M140.631 242.553C137.765 242.553 135.006 240.97 133.638 238.232C131.708 234.373 133.272 229.681 137.131 227.751L168.381 212.126C172.239 210.196 176.934 211.76 178.862 215.62C180.792 219.479 179.228 224.172 175.369 226.102L144.119 241.727C142.998 242.287 141.805 242.553 140.631 242.553Z" fill="#553C20"/>
<path d="M93.7441 242.553C92.5693 242.553 91.3779 242.287 90.2558 241.726L59.0059 226.101C55.1475 224.171 53.583 219.479 55.5127 215.619C57.4424 211.759 62.1338 210.197 65.9941 212.125L97.2441 227.75C101.103 229.68 102.667 234.372 100.737 238.231C99.3691 240.97 96.6103 242.553 93.7441 242.553Z" fill="#553C20"/>
<path d="M117.188 292.735C93.2256 292.735 71.0449 281.888 56.334 262.973C53.6846 259.566 54.2979 254.658 57.7041 252.009C61.1084 249.359 66.0176 249.974 68.667 253.379C80.3975 268.46 98.082 277.109 117.188 277.109C136.295 277.109 153.979 268.46 165.71 253.379C168.358 249.974 173.268 249.361 176.673 252.009C180.079 254.658 180.692 259.566 178.043 262.973C163.33 281.887 141.149 292.735 117.188 292.735Z" fill="#553C20"/>
<path d="M117.188 305.051C112.873 305.051 109.375 301.553 109.375 297.238V273.801C109.375 269.486 112.873 265.988 117.188 265.988C121.502 265.988 125 269.486 125 273.801V297.238C125 301.554 121.502 305.051 117.188 305.051Z" fill="#553C20"/>
<path d="M148.437 297.24C145.165 297.24 142.117 295.17 141.025 291.896L133.213 268.459C131.85 264.366 134.061 259.941 138.154 258.577C142.251 257.212 146.672 259.425 148.037 263.519L155.85 286.956C157.213 291.049 155.002 295.474 150.908 296.838C150.088 297.11 149.255 297.24 148.437 297.24Z" fill="#553C20"/>
<path d="M179.687 281.613C177.687 281.613 175.688 280.851 174.163 279.325L158.538 263.7C155.487 260.649 155.487 255.703 158.538 252.652C161.59 249.602 166.535 249.602 169.587 252.652L185.212 268.277C188.263 271.328 188.263 276.274 185.212 279.325C183.687 280.851 181.687 281.613 179.687 281.613Z" fill="#553C20"/>
<path d="M85.9385 297.24C85.1191 297.24 84.2871 297.11 83.4668 296.837C79.374 295.473 77.1621 291.048 78.5254 286.955L86.3379 263.518C87.7031 259.425 92.126 257.213 96.2207 258.576C100.313 259.94 102.525 264.365 101.162 268.458L93.3496 291.896C92.2578 295.17 89.21 297.24 85.9385 297.24Z" fill="#553C20"/>
<path d="M54.6875 281.613C52.6875 281.613 50.6885 280.851 49.1631 279.325C46.1123 276.274 46.1123 271.328 49.1631 268.277L64.7881 252.652C67.8398 249.602 72.7852 249.602 75.8369 252.652C78.8877 255.703 78.8877 260.649 75.8369 263.7L60.2119 279.325C58.6865 280.851 56.6875 281.613 54.6875 281.613Z" fill="#553C20"/>
<path d="M249.988 499.993C247.688 499.993 245.412 498.98 243.873 497.035C243.471 496.526 233.963 484.353 229.221 464.659C224.864 446.568 223.778 418.328 243.346 386.531C275.061 334.996 245.145 295.543 243.855 293.889C241.21 290.494 241.799 285.588 245.183 282.931C248.567 280.273 253.455 280.842 256.125 284.216C256.527 284.725 266.035 296.898 270.777 316.592C275.134 334.683 276.22 362.923 256.652 394.72C224.938 446.255 254.854 485.708 256.144 487.362C258.788 490.757 258.199 495.663 254.815 498.32C253.383 499.446 251.679 499.993 249.988 499.993Z" fill="#4D5166"/>
<path d="M289.062 296.875H210.938L240.234 250H259.766L289.062 296.875Z" fill="#BF4C53"/>
<path d="M359.375 125C359.375 193.46 310.406 256.771 250 256.771C189.594 256.771 140.625 193.46 140.625 125C140.625 56.54 189.594 8.85449 250 8.85449C310.406 8.85449 359.375 56.54 359.375 125Z" fill="#E65C64"/>
<path d="M265.625 109.375L320.312 62.5L312.5 101.562L265.625 109.375Z" fill="#4C1E21"/>
<path d="M234.375 109.375L179.688 62.5L187.5 101.562L234.375 109.375Z" fill="#4C1E21"/>
<path d="M250 218.75C218.508 218.75 190.548 200.837 180.59 174.28L179.688 171.875C223.95 191.547 276.05 191.547 320.312 171.875L319.41 174.28C309.451 200.837 281.492 218.75 250 218.75Z" fill="#E2E2E2"/>
<path d="M226.562 156.25L250 125L273.438 156.25H226.562Z" fill="#4C1E21"/>
<path d="M234.375 187.5V195.313C234.375 199.629 230.879 203.125 226.562 203.125C222.246 203.125 218.75 199.629 218.75 195.313V187.5C218.75 186.23 219.053 185.039 219.59 183.984C224.434 184.834 229.316 185.479 234.219 185.918C234.316 186.426 234.375 186.953 234.375 187.5Z" fill="#4D5166"/>
<path d="M281.25 187.5V195.313C281.25 199.629 277.754 203.125 273.438 203.125C269.121 203.125 265.625 199.629 265.625 195.313V187.5C265.625 186.953 265.684 186.426 265.781 185.918C270.684 185.479 275.566 184.834 280.41 183.984C280.947 185.039 281.25 186.23 281.25 187.5Z" fill="#4D5166"/>
</svg>
