<svg width="500" height="500" viewBox="0 0 500 500" fill="none" xmlns="http://www.w3.org/2000/svg">
<path d="M85.9375 127.71L112.335 160.471L142.21 151.303L145.688 109.375L85.9375 127.71Z" fill="#973D42"/>
<path d="M154.775 245.508C151.719 246.445 148.633 246.895 145.596 246.895C140.371 246.895 135.303 245.576 130.82 243.154C126.211 240.693 122.227 237.07 119.326 232.549C117.813 230.195 116.592 227.607 115.732 224.805L111.982 212.578L106.973 196.26L101.982 179.99C96.9141 163.496 106.191 146.016 122.686 140.947C125.742 140.01 128.828 139.57 131.865 139.57C138.545 139.57 144.971 141.729 150.244 145.566C154.502 148.652 158.008 152.832 160.283 157.852C160.84 159.072 161.328 160.342 161.729 161.66L166.934 178.633L171.943 194.961L175.479 206.465C180.547 222.969 171.279 240.449 154.775 245.508Z" fill="#E65C64"/>
<path d="M171.943 194.961L130.82 243.154C126.211 240.693 122.227 237.07 119.326 232.549L163.291 181.025C164.287 179.854 165.557 179.053 166.934 178.633L171.943 194.961Z" fill="#973D42"/>
<path d="M160.283 157.852L115.635 210.186C114.639 211.357 113.359 212.158 111.982 212.578L106.973 196.26L150 145.83C150.078 145.742 150.156 145.654 150.244 145.566C154.502 148.652 158.008 152.832 160.283 157.852Z" fill="#973D42"/>
<path d="M264.716 261.903C261.216 261.903 258.03 259.534 257.143 255.984L236.289 172.615C235.242 168.43 237.786 164.188 241.972 163.141C246.154 162.097 250.399 164.637 251.446 168.823L272.3 252.192C273.347 256.378 270.803 260.62 266.617 261.667C265.981 261.827 265.344 261.903 264.716 261.903Z" fill="#973D42"/>
<path d="M234.388 187.513C264.591 187.513 289.075 163.028 289.075 132.825C289.075 102.622 264.591 78.1377 234.388 78.1377C204.185 78.1377 179.7 102.622 179.7 132.825C179.7 163.028 204.185 187.513 234.388 187.513Z" fill="#E65C64"/>
<path d="M288.955 129.014V129.023C282.803 134.355 270.508 142.51 252.51 142.959C248.73 143.047 244.697 142.803 240.42 142.119C238.867 141.875 237.266 141.563 235.645 141.191C234.551 140.947 233.447 140.664 232.324 140.361C231.318 140.088 230.332 139.844 229.355 139.619H229.346C227.891 139.307 226.475 139.053 225.098 138.857C221.24 138.301 217.686 138.223 214.414 138.477C197.051 139.795 187.861 150.479 187.363 151.064C186.387 152.266 185.137 153.096 183.77 153.545C182.793 151.152 181.982 148.672 181.338 146.094C180.547 142.93 180.049 139.775 179.824 136.631V136.621C185.986 131.289 198.281 123.145 216.27 122.695C220.039 122.598 224.072 122.852 228.359 123.535C229.912 123.779 231.504 124.092 233.125 124.463C234.219 124.707 235.332 124.98 236.455 125.293C237.461 125.566 238.447 125.811 239.414 126.025C240.869 126.348 242.295 126.602 243.682 126.807C247.529 127.344 251.084 127.432 254.355 127.178C271.729 125.859 280.918 115.176 281.416 114.58C282.383 113.379 283.633 112.549 285 112.1C285.977 114.492 286.797 116.973 287.441 119.551C288.232 122.715 288.73 125.869 288.955 129.014Z" fill="#4D5166"/>
<path d="M270.283 91.5527C269.697 99.6777 266.768 114.141 254.355 127.178C251.758 129.922 248.73 132.598 245.225 135.137C243.945 136.064 242.598 136.973 241.191 137.861H241.182V137.871C240.234 138.447 239.268 139.033 238.262 139.609C237.354 140.127 236.484 140.654 235.645 141.191C234.385 141.992 233.193 142.812 232.08 143.662C228.975 145.986 226.396 148.447 224.258 150.937C212.91 164.15 213.965 178.213 214.033 178.975C214.189 180.508 213.896 181.982 213.242 183.262C207.881 181.016 202.891 177.92 198.496 174.102C199.082 165.977 202.012 151.514 214.414 138.477C217.012 135.732 220.039 133.057 223.555 130.518C224.834 129.58 226.172 128.672 227.588 127.803V127.793H227.598C228.545 127.187 229.512 126.611 230.518 126.035C231.426 125.518 232.295 124.99 233.125 124.463C234.385 123.662 235.576 122.832 236.689 121.992C239.805 119.658 242.383 117.197 244.521 114.707C255.869 101.494 254.814 87.4316 254.746 86.6699C254.59 85.1367 254.883 83.6719 255.527 82.3926C260.898 84.6387 265.879 87.7344 270.283 91.5527Z" fill="#4D5166"/>
<path d="M255.107 183.447C252.715 184.414 250.234 185.234 247.656 185.879C244.492 186.67 241.328 187.168 238.193 187.393C232.861 181.24 224.707 168.936 224.258 150.937C224.17 147.168 224.414 143.135 225.098 138.857C225.342 137.305 225.654 135.703 226.025 134.082C226.27 132.988 226.553 131.885 226.855 130.762C227.129 129.756 227.373 128.779 227.588 127.803V127.793H227.598C227.91 126.338 228.164 124.922 228.359 123.535C228.906 119.688 228.994 116.123 228.74 112.852C227.422 95.4883 216.738 86.2988 216.143 85.8008C214.951 84.8242 214.121 83.5742 213.672 82.2168C216.055 81.2305 218.545 80.4199 221.113 79.7754C224.277 78.9844 227.441 78.4863 230.586 78.2617C235.918 84.4141 244.072 96.709 244.521 114.707C244.609 118.486 244.365 122.52 243.682 126.807C243.437 128.359 243.125 129.951 242.754 131.572C242.51 132.666 242.227 133.77 241.924 134.893C241.65 135.898 241.406 136.885 241.191 137.861H241.182V137.871C240.869 139.326 240.615 140.742 240.42 142.119C239.863 145.977 239.785 149.531 240.039 152.803C241.357 170.166 252.041 179.355 252.627 179.854C253.828 180.83 254.658 182.08 255.107 183.447Z" fill="#4D5166"/>
<path d="M284.814 153.994C282.568 159.355 279.463 164.326 275.654 168.721C267.539 168.135 253.076 165.205 240.039 152.803C237.295 150.205 234.619 147.178 232.08 143.662C231.143 142.383 230.234 141.035 229.355 139.619H229.346C228.75 138.672 228.174 137.705 227.598 136.699C227.08 135.791 226.553 134.922 226.025 134.082C225.215 132.822 224.395 131.631 223.555 130.518C221.221 127.412 218.76 124.834 216.27 122.695C202.813 111.152 188.477 112.451 188.291 112.471C186.738 112.627 185.244 112.324 183.955 111.66C186.211 106.299 189.307 101.328 193.115 96.9336C201.24 97.5195 215.703 100.449 228.74 112.852C231.475 115.459 234.15 118.477 236.689 121.992C237.617 123.262 238.525 124.609 239.414 126.025C240.01 126.973 240.596 127.949 241.172 128.955C241.689 129.863 242.217 130.732 242.754 131.572C243.555 132.832 244.385 134.023 245.225 135.137C247.559 138.242 250.02 140.82 252.51 142.959C265.967 154.492 280.293 153.203 280.479 153.184C282.031 153.018 283.525 153.33 284.814 153.994Z" fill="#4D5166"/>
<path d="M309.063 265.627C308.507 265.627 307.942 265.566 307.376 265.443C303.163 264.516 300.498 260.348 301.425 256.134L319.896 172.205C320.824 167.992 324.99 165.331 329.206 166.254C333.419 167.182 336.084 171.35 335.157 175.563L316.686 259.492C315.884 263.14 312.651 265.627 309.063 265.627Z" fill="#973D42"/>
<path d="M335.924 198.234C370.442 198.234 398.424 170.252 398.424 135.734C398.424 101.217 370.442 73.2344 335.924 73.2344C301.406 73.2344 273.424 101.217 273.424 135.734C273.424 170.252 301.406 198.234 335.924 198.234Z" fill="#E6C067"/>
<path d="M324.031 124.93C321.454 124.93 318.932 123.656 317.441 121.324L315.698 118.598L312.972 120.34C309.335 122.665 304.505 121.602 302.182 117.965C299.857 114.329 300.921 109.498 304.557 107.175L313.865 101.225C317.504 98.8984 322.333 99.9629 324.655 103.6L330.606 112.908C332.931 116.544 331.867 121.374 328.231 123.698C326.928 124.532 325.471 124.93 324.031 124.93Z" fill="#973D42"/>
<path d="M369.811 135.005C367.233 135.005 364.711 133.731 363.221 131.399L361.478 128.673L358.751 130.415C355.117 132.74 350.284 131.677 347.961 128.04C345.637 124.404 346.7 119.574 350.336 117.25L359.645 111.299C361.39 110.182 363.506 109.807 365.531 110.251C367.555 110.696 369.318 111.928 370.435 113.674L376.386 122.983C378.71 126.619 377.646 131.45 374.011 133.773C372.707 134.607 371.25 135.005 369.811 135.005Z" fill="#973D42"/>
<path d="M336.467 170.956C333.781 170.956 331.07 170.663 328.368 170.069C316.852 167.534 307.446 159.925 302.564 149.191C300.778 145.264 302.514 140.631 306.441 138.845C310.369 137.058 315.001 138.794 316.788 142.722C319.615 148.936 325.06 153.342 331.728 154.81C338.394 156.277 345.186 154.564 350.359 150.11C353.631 147.295 358.562 147.665 361.377 150.936C364.191 154.206 363.822 159.138 360.552 161.953C353.711 167.841 345.232 170.956 336.467 170.956Z" fill="#973D42"/>
<path d="M342.795 185.057C342.238 185.057 341.674 184.996 341.107 184.872C336.894 183.945 334.229 179.777 335.157 175.563L338.516 160.304C339.441 156.09 343.616 153.422 347.824 154.354C352.038 155.28 354.702 159.448 353.774 163.662L350.416 178.922C349.615 182.569 346.383 185.057 342.795 185.057Z" fill="#973D42"/>
<path d="M312.276 178.34C311.72 178.34 311.155 178.279 310.589 178.155C306.375 177.229 303.711 173.061 304.639 168.847L307.997 153.587C308.923 149.373 313.097 146.708 317.306 147.637C321.52 148.563 324.184 152.731 323.256 156.945L319.897 172.205C319.096 175.853 315.863 178.34 312.276 178.34Z" fill="#973D42"/>
<path d="M418.841 250H73.3467C64.4141 250 55.9141 246.146 50.0303 239.424C44.1465 232.703 41.4492 223.771 42.6299 214.915L48.1816 173.274C54.5781 125.3 78.1553 81.3213 114.57 49.4385C150.985 17.5576 197.694 0 246.094 0C294.493 0 341.202 17.5576 377.617 49.4395C414.032 81.3213 437.61 125.301 444.006 173.275L449.558 214.916C450.738 223.771 448.041 232.704 442.157 239.425C436.272 246.146 427.773 250 418.841 250ZM246.094 15.625C201.481 15.625 158.428 31.8086 124.862 61.1953C91.2978 90.583 69.5654 131.12 63.6689 175.341L58.1172 216.981C57.5312 221.371 58.8691 225.8 61.7861 229.132C64.7041 232.464 68.918 234.375 73.3467 234.375H418.84C423.269 234.375 427.482 232.464 430.4 229.132C433.317 225.8 434.654 221.371 434.069 216.981L428.518 175.341C422.621 131.12 400.889 90.583 367.324 61.1953C333.76 31.8086 290.706 15.625 246.094 15.625Z" fill="#4D5166"/>
<path d="M351.265 492.188H148.735C135.282 492.188 124.04 481.949 122.784 468.556L101.562 242.188H398.438L377.216 468.556C375.96 481.949 364.717 492.188 351.265 492.188Z" fill="#ECA559"/>
<path d="M250 468.75C245.686 468.75 242.188 465.252 242.188 460.938V289.062C242.188 284.748 245.686 281.25 250 281.25C254.314 281.25 257.812 284.748 257.812 289.062V460.938C257.812 465.252 254.314 468.75 250 468.75Z" fill="#B68045"/>
<path d="M289.072 468.751C288.722 468.751 288.365 468.728 288.007 468.679C283.731 468.096 280.739 464.157 281.321 459.882L304.759 288.007C305.342 283.732 309.269 280.74 313.556 281.321C317.831 281.904 320.823 285.843 320.241 290.118L296.804 461.993C296.27 465.91 292.918 468.751 289.072 468.751Z" fill="#B68045"/>
<path d="M335.947 468.751C335.597 468.751 335.24 468.728 334.882 468.679C330.606 468.096 327.614 464.157 328.196 459.882L351.634 288.007C352.217 283.732 356.144 280.74 360.431 281.321C364.706 281.904 367.698 285.843 367.116 290.118L343.679 461.993C343.145 465.91 339.793 468.751 335.947 468.751Z" fill="#B68045"/>
<path d="M210.928 468.751C207.082 468.751 203.73 465.91 203.196 461.993L179.759 290.118C179.176 285.843 182.169 281.904 186.444 281.321C190.731 280.748 194.659 283.733 195.241 288.007L218.679 459.882C219.262 464.157 216.269 468.096 211.993 468.679C211.635 468.728 211.279 468.751 210.928 468.751Z" fill="#B68045"/>
<path d="M164.053 468.751C160.207 468.751 156.855 465.91 156.321 461.993L132.884 290.118C132.301 285.843 135.294 281.904 139.569 281.321C143.855 280.748 147.784 283.733 148.366 288.007L171.804 459.882C172.387 464.157 169.394 468.096 165.118 468.679C164.76 468.728 164.404 468.751 164.053 468.751Z" fill="#B68045"/>
<path d="M405.232 257.813H94.7676C89.8906 257.813 85.9375 253.859 85.9375 248.982V235.392C85.9375 230.515 89.8906 226.562 94.7676 226.562H405.233C410.11 226.562 414.063 230.515 414.063 235.392V248.982C414.063 253.859 410.109 257.813 405.232 257.813Z" fill="#B68045"/>
<path d="M156.25 335.938L187.5 289.062L218.75 335.938H156.25Z" fill="#953C41"/>
<path d="M281.25 335.938L312.5 289.062L343.75 335.938H281.25Z" fill="#953C41"/>
<path d="M252.279 445.312H247.72C215.601 445.312 186.238 427.166 171.874 398.438C223.446 408.752 276.551 408.752 328.124 398.438C313.761 427.166 284.398 445.312 252.279 445.312Z" fill="#953C41"/>
<path d="M226.562 405.478V414.062C226.562 418.379 223.066 421.875 218.75 421.875C214.434 421.875 210.938 418.379 210.938 414.062V404.248C216.143 404.766 221.348 405.176 226.562 405.478Z" fill="#522124"/>
<path d="M289.062 404.248V414.062C289.062 418.379 285.566 421.875 281.25 421.875C276.934 421.875 273.438 418.379 273.438 414.062V405.478C278.652 405.176 283.857 404.766 289.062 404.248Z" fill="#522124"/>
<path d="M242.188 429.688V445.127C236.855 444.785 231.631 443.945 226.562 442.637V429.688C226.562 425.371 230.059 421.875 234.375 421.875C238.691 421.875 242.188 425.371 242.188 429.688Z" fill="#522124"/>
<path d="M273.438 429.688V442.637C268.369 443.945 263.145 444.785 257.812 445.127V429.688C257.812 425.371 261.309 421.875 265.625 421.875C269.941 421.875 273.438 425.371 273.438 429.688Z" fill="#522124"/>
</svg>
