<svg width="500" height="500" viewBox="0 0 500 500" fill="none" xmlns="http://www.w3.org/2000/svg">
<path d="M320.312 462.001L151.109 492.187L37.8086 168.487L70.0234 37.6807L239.227 7.49414L314.687 119.092L320.312 462.001Z" fill="#424557"/>
<path d="M335.938 484.375H164.062L109.375 140.625L164.062 15.625H335.938L390.625 140.625L335.938 484.375Z" fill="#4D5166"/>
<path d="M335.938 484.375H164.062L109.375 140.625L164.062 15.625H335.938L390.625 140.625L335.938 484.375Z" fill="#4D5166"/>
<path d="M390.625 140.625L389.316 148.848L353.096 156.094C352.578 156.201 352.061 156.25 351.553 156.25C347.91 156.25 344.648 153.682 343.906 149.971C343.057 145.742 345.801 141.621 350.029 140.781L387.422 133.301L390.625 140.625Z" fill="#2C2E3B"/>
<path d="M156.094 149.971C155.352 153.682 152.09 156.25 148.447 156.25C147.939 156.25 147.422 156.201 146.904 156.094L110.684 148.848L109.375 140.625L112.578 133.301L149.971 140.781C154.199 141.621 156.943 145.742 156.094 149.971Z" fill="#2C2E3B"/>
<path d="M337.646 473.633L335.937 484.375H326.172L306.25 457.812C303.662 454.365 304.365 449.463 307.813 446.875C311.26 444.287 316.162 444.98 318.75 448.437L337.646 473.633Z" fill="#2C2E3B"/>
<path d="M193.75 457.812L173.828 484.375H164.062L162.354 473.633L181.25 448.437C183.838 444.98 188.74 444.287 192.188 446.875C195.635 449.463 196.338 454.365 193.75 457.812Z" fill="#2C2E3B"/>
<path d="M192.187 53.125C190.781 54.1797 189.141 54.6875 187.51 54.6875C185.127 54.6875 182.783 53.6133 181.25 51.5625L160.469 23.8477L164.062 15.625H173.828L193.75 42.1875C196.338 45.6348 195.635 50.5371 192.187 53.125Z" fill="#2C2E3B"/>
<path d="M339.531 23.8477L318.75 51.5625C317.217 53.6133 314.873 54.6875 312.49 54.6875C310.859 54.6875 309.219 54.1797 307.813 53.125C304.365 50.5371 303.662 45.6348 306.25 42.1875L326.172 15.625H335.937L339.531 23.8477Z" fill="#2C2E3B"/>
<path d="M312.5 453.125H187.5L148.438 148.438L187.5 46.875H312.5L351.562 148.438L312.5 453.125Z" fill="#9AA2CB"/>
<path d="M320.312 132.812H265.625V78.125H234.375V132.812H179.688V164.062H234.375V289.062H265.625V164.062H320.312V132.812Z" fill="#9C3E44"/>
<path d="M273.438 335.938H226.562C222.248 335.938 218.75 332.439 218.75 328.125C218.75 323.811 222.248 320.312 226.562 320.312H273.438C277.752 320.312 281.25 323.811 281.25 328.125C281.25 332.439 277.752 335.938 273.438 335.938Z" fill="#9C3E44"/>
<path d="M296.875 367.188H203.125C198.811 367.188 195.312 363.689 195.312 359.375C195.312 355.061 198.811 351.562 203.125 351.562H296.875C301.189 351.562 304.688 355.061 304.688 359.375C304.688 363.689 301.189 367.188 296.875 367.188Z" fill="#9C3E44"/>
<path d="M273.438 398.438H226.562C222.248 398.438 218.75 394.939 218.75 390.625C218.75 386.311 222.248 382.812 226.562 382.812H273.438C277.752 382.812 281.25 386.311 281.25 390.625C281.25 394.939 277.752 398.438 273.438 398.438Z" fill="#9C3E44"/>
</svg>
