<svg width="4500" height="500" viewBox="0 0 4500 500" fill="none" xmlns="http://www.w3.org/2000/svg">
<g clip-path="url(#clip0_1_2)">
<rect width="4500" height="500" fill="white"/>
<path d="M398.418 496.986C395.857 496.986 393.354 495.728 391.865 493.411C391.05 492.142 372.105 461.882 391.449 423.193C406.693 392.703 392.455 369.354 391.841 368.375C389.559 364.733 390.634 359.914 394.262 357.611C397.888 355.309 402.685 356.349 405.008 359.963C405.823 361.232 424.768 391.492 405.424 430.182C390.18 460.671 404.418 484.021 405.032 485C407.314 488.642 406.239 493.461 402.611 495.764C401.309 496.591 399.855 496.986 398.418 496.986Z" fill="#4D5166"/>
<path d="M437.5 372H359.375L388.672 325.125H408.203L437.5 372Z" fill="#BDBDBD"/>
<path d="M492.188 219.991C492.188 278.671 450.214 332.938 398.438 332.938C346.661 332.938 304.688 278.671 304.688 219.991C304.688 161.312 346.661 120.438 398.438 120.438C450.214 120.438 492.188 161.311 492.188 219.991Z" fill="#E2E2E2"/>
<path d="M359.375 215.75C368.004 215.75 375 205.257 375 192.312C375 179.368 368.004 168.875 359.375 168.875C350.746 168.875 343.75 179.368 343.75 192.312C343.75 205.257 350.746 215.75 359.375 215.75Z" fill="#4D5166"/>
<path d="M445.312 215.75C453.942 215.75 460.938 205.257 460.938 192.312C460.938 179.368 453.942 168.875 445.312 168.875C436.683 168.875 429.688 179.368 429.688 192.312C429.688 205.257 436.683 215.75 445.312 215.75Z" fill="#4D5166"/>
<path d="M398.438 301.688C415.696 301.688 429.688 287.696 429.688 270.438C429.688 253.179 415.696 239.188 398.438 239.188C381.179 239.188 367.188 253.179 367.188 270.438C367.188 287.696 381.179 301.688 398.438 301.688Z" fill="#4D5166"/>
<path d="M117.186 497C115.29 497 113.389 496.314 111.887 494.927C111.467 494.539 101.554 485.263 96.584 470.179C91.9512 456.121 90.7295 434.259 111.212 409.936C123.928 394.837 127.877 379.6 122.951 364.649C119.292 353.545 111.959 346.557 111.887 346.489C108.717 343.562 108.521 338.619 111.448 335.449C114.376 332.278 119.319 332.082 122.488 335.011C122.908 335.398 132.821 344.675 137.791 359.759C142.424 373.816 143.646 395.679 123.163 420.001C110.447 435.101 106.498 450.338 111.424 465.288C115.083 476.393 122.416 483.381 122.488 483.448C125.658 486.376 125.855 491.318 122.927 494.488C121.387 496.155 119.289 497 117.186 497Z" fill="#4D5166"/>
<path d="M148.438 356.738H85.9375L109.375 309.863H125L148.438 356.738Z" fill="#C18749"/>
<path d="M190.104 176.688C183.462 176.688 177.239 180.14 171.875 186.142C166.512 180.14 160.289 176.688 153.646 176.688C147.003 176.688 140.78 180.14 135.416 186.142C130.053 180.14 123.83 176.688 117.188 176.688C110.545 176.688 104.322 180.14 98.958 186.142C93.5947 180.14 87.3721 176.688 80.7295 176.688C74.0869 176.688 67.8643 180.14 62.5 186.142C57.1367 180.14 50.9141 176.688 44.2705 176.688C24.1357 176.688 7.8125 208.249 7.8125 247.182C7.8125 286.114 24.1357 317.676 44.2705 317.676C50.9131 317.676 57.1357 314.224 62.5 308.222C67.8633 314.224 74.0859 317.676 80.7295 317.676C87.3721 317.676 93.5947 314.224 98.959 308.222C104.322 314.224 110.545 317.676 117.188 317.676C123.832 317.676 130.054 314.224 135.418 308.222C140.781 314.224 147.004 317.676 153.647 317.676C160.29 317.676 166.513 314.224 171.877 308.222C177.24 314.224 183.463 317.676 190.106 317.676C210.242 317.676 226.564 286.114 226.564 247.182C226.562 208.249 210.239 176.688 190.104 176.688Z" fill="#ECA559"/>
<path d="M140.631 239.553C137.765 239.553 135.006 237.97 133.638 235.232C131.708 231.373 133.272 226.681 137.131 224.751L168.381 209.126C172.239 207.196 176.934 208.76 178.862 212.62C180.792 216.48 179.228 221.172 175.369 223.102L144.119 238.727C142.998 239.287 141.805 239.553 140.631 239.553Z" fill="#553C20"/>
<path d="M93.7441 239.553C92.5693 239.553 91.3779 239.287 90.2558 238.726L59.0059 223.101C55.1475 221.171 53.583 216.479 55.5127 212.619C57.4424 208.759 62.1338 207.197 65.9941 209.125L97.2441 224.75C101.103 226.68 102.667 231.372 100.737 235.231C99.3691 237.97 96.6103 239.553 93.7441 239.553Z" fill="#553C20"/>
<path d="M117.187 289.735C93.2256 289.735 71.0449 278.888 56.334 259.973C53.6845 256.566 54.2978 251.658 57.7041 249.009C61.1084 246.359 66.0176 246.974 68.667 250.379C80.3974 265.46 98.082 274.109 117.188 274.109C136.295 274.109 153.979 265.46 165.71 250.379C168.358 246.974 173.268 246.361 176.673 249.009C180.079 251.658 180.692 256.566 178.043 259.973C163.33 278.887 141.149 289.735 117.187 289.735Z" fill="#553C20"/>
<path d="M117.188 302.051C112.873 302.051 109.375 298.553 109.375 294.238V270.801C109.375 266.486 112.873 262.988 117.188 262.988C121.502 262.988 125 266.486 125 270.801V294.238C125 298.554 121.502 302.051 117.188 302.051Z" fill="#553C20"/>
<path d="M148.437 294.24C145.165 294.24 142.117 292.17 141.025 288.897L133.213 265.459C131.85 261.366 134.061 256.941 138.154 255.577C142.251 254.212 146.672 256.425 148.037 260.519L155.85 283.956C157.213 288.049 155.002 292.474 150.908 293.838C150.088 294.11 149.255 294.24 148.437 294.24Z" fill="#553C20"/>
<path d="M179.687 278.613C177.687 278.613 175.688 277.851 174.163 276.325L158.538 260.7C155.487 257.649 155.487 252.703 158.538 249.652C161.59 246.602 166.535 246.602 169.587 249.652L185.212 265.277C188.263 268.328 188.263 273.274 185.212 276.325C183.687 277.851 181.687 278.613 179.687 278.613Z" fill="#553C20"/>
<path d="M85.9385 294.24C85.1192 294.24 84.2871 294.11 83.4668 293.837C79.3741 292.473 77.1621 288.048 78.5254 283.955L86.3379 260.518C87.7032 256.425 92.126 254.213 96.2207 255.576C100.314 256.94 102.525 261.365 101.162 265.458L93.3496 288.896C92.2578 292.17 89.21 294.24 85.9385 294.24Z" fill="#553C20"/>
<path d="M54.6875 278.613C52.6875 278.613 50.6885 277.851 49.1631 276.325C46.1123 273.274 46.1123 268.328 49.1631 265.277L64.7881 249.652C67.8398 246.602 72.7852 246.602 75.8369 249.652C78.8877 252.703 78.8877 257.649 75.8369 260.7L60.2119 276.325C58.6865 277.851 56.6875 278.613 54.6875 278.613Z" fill="#553C20"/>
<path d="M249.988 496.993C247.688 496.993 245.412 495.98 243.873 494.035C243.471 493.526 233.963 481.353 229.221 461.659C224.864 443.568 223.778 415.328 243.346 383.531C275.061 331.996 245.145 292.543 243.854 290.889C241.21 287.494 241.799 282.588 245.183 279.931C248.567 277.273 253.455 277.842 256.125 281.216C256.527 281.725 266.035 293.898 270.777 313.592C275.134 331.683 276.22 359.923 256.652 391.72C224.938 443.255 254.853 482.708 256.144 484.362C258.788 487.757 258.199 492.663 254.815 495.32C253.383 496.446 251.679 496.993 249.988 496.993Z" fill="#4D5166"/>
<path d="M289.062 293.875H210.938L240.234 247H259.766L289.062 293.875Z" fill="#BF4C53"/>
<path d="M359.375 122C359.375 190.46 310.406 253.771 250 253.771C189.594 253.771 140.625 190.46 140.625 122C140.625 53.54 189.594 5.85449 250 5.85449C310.406 5.85449 359.375 53.54 359.375 122Z" fill="#E65C64"/>
<path d="M265.625 106.375L320.312 59.5L312.5 98.5625L265.625 106.375Z" fill="#4C1E21"/>
<path d="M234.375 106.375L179.688 59.5L187.5 98.5625L234.375 106.375Z" fill="#4C1E21"/>
<path d="M250 215.75C218.508 215.75 190.548 197.837 180.59 171.28L179.688 168.875C223.95 188.547 276.05 188.547 320.312 168.875L319.41 171.28C309.451 197.837 281.492 215.75 250 215.75Z" fill="#E2E2E2"/>
<path d="M226.562 153.25L250 122L273.438 153.25H226.562Z" fill="#4C1E21"/>
<path d="M234.375 184.5V192.313C234.375 196.629 230.879 200.125 226.562 200.125C222.246 200.125 218.75 196.629 218.75 192.313V184.5C218.75 183.23 219.053 182.039 219.59 180.984C224.434 181.834 229.316 182.479 234.219 182.918C234.316 183.426 234.375 183.953 234.375 184.5Z" fill="#4D5166"/>
<path d="M281.25 184.5V192.313C281.25 196.629 277.754 200.125 273.438 200.125C269.121 200.125 265.625 196.629 265.625 192.313V184.5C265.625 183.953 265.684 183.426 265.781 182.918C270.684 182.479 275.566 181.834 280.41 180.984C280.947 182.039 281.25 183.23 281.25 184.5Z" fill="#4D5166"/>
<path d="M585.938 124.71L612.335 157.471L642.21 148.303L645.688 106.375L585.938 124.71Z" fill="#973D42"/>
<path d="M654.775 242.508C651.719 243.445 648.633 243.895 645.596 243.895C640.371 243.895 635.303 242.576 630.82 240.154C626.211 237.693 622.227 234.07 619.326 229.549C617.813 227.195 616.592 224.607 615.732 221.805L611.982 209.578L606.973 193.26L601.982 176.99C596.914 160.496 606.191 143.016 622.686 137.947C625.742 137.01 628.828 136.57 631.865 136.57C638.545 136.57 644.971 138.729 650.244 142.566C654.502 145.652 658.008 149.832 660.283 154.852C660.84 156.072 661.328 157.342 661.729 158.66L666.934 175.633L671.943 191.961L675.479 203.465C680.547 219.969 671.279 237.449 654.775 242.508Z" fill="#E65C64"/>
<path d="M671.943 191.961L630.82 240.154C626.211 237.693 622.227 234.07 619.326 229.549L663.291 178.025C664.287 176.854 665.557 176.053 666.934 175.633L671.943 191.961Z" fill="#973D42"/>
<path d="M660.283 154.852L615.635 207.186C614.639 208.357 613.359 209.158 611.982 209.578L606.973 193.26L650 142.83C650.078 142.742 650.156 142.654 650.244 142.566C654.502 145.652 658.008 149.832 660.283 154.852Z" fill="#973D42"/>
<path d="M764.716 258.903C761.216 258.903 758.03 256.534 757.143 252.984L736.289 169.615C735.242 165.43 737.786 161.187 741.972 160.141C746.154 159.097 750.399 161.637 751.446 165.823L772.3 249.192C773.347 253.378 770.803 257.62 766.617 258.667C765.981 258.827 765.344 258.903 764.716 258.903Z" fill="#973D42"/>
<path d="M734.388 184.513C764.591 184.513 789.075 160.028 789.075 129.825C789.075 99.6221 764.591 75.1377 734.388 75.1377C704.185 75.1377 679.7 99.6221 679.7 129.825C679.7 160.028 704.185 184.513 734.388 184.513Z" fill="#E65C64"/>
<path d="M788.955 126.014V126.023C782.803 131.355 770.508 139.51 752.51 139.959C748.73 140.047 744.697 139.803 740.42 139.119C738.867 138.875 737.266 138.563 735.645 138.191C734.551 137.947 733.447 137.664 732.324 137.361C731.318 137.088 730.332 136.844 729.355 136.619H729.346C727.891 136.307 726.475 136.053 725.098 135.857C721.24 135.301 717.686 135.223 714.414 135.477C697.051 136.795 687.861 147.479 687.363 148.064C686.387 149.266 685.137 150.096 683.77 150.545C682.793 148.152 681.982 145.672 681.338 143.094C680.547 139.93 680.049 136.775 679.824 133.631V133.621C685.986 128.289 698.281 120.145 716.27 119.695C720.039 119.598 724.072 119.852 728.359 120.535C729.912 120.779 731.504 121.092 733.125 121.463C734.219 121.707 735.332 121.98 736.455 122.293C737.461 122.566 738.447 122.811 739.414 123.025C740.869 123.348 742.295 123.602 743.682 123.807C747.529 124.344 751.084 124.432 754.355 124.178C771.729 122.859 780.918 112.176 781.416 111.58C782.383 110.379 783.633 109.549 785 109.1C785.977 111.492 786.797 113.973 787.441 116.551C788.232 119.715 788.73 122.869 788.955 126.014Z" fill="#4D5166"/>
<path d="M770.283 88.5527C769.697 96.6777 766.768 111.141 754.355 124.178C751.758 126.922 748.73 129.598 745.225 132.137C743.945 133.064 742.598 133.973 741.191 134.861H741.182V134.871C740.234 135.447 739.268 136.033 738.262 136.609C737.354 137.127 736.484 137.654 735.645 138.191C734.385 138.992 733.193 139.812 732.08 140.662C728.975 142.986 726.396 145.447 724.258 147.937C712.91 161.15 713.965 175.213 714.033 175.975C714.189 177.508 713.896 178.982 713.242 180.262C707.881 178.016 702.891 174.92 698.496 171.102C699.082 162.977 702.012 148.514 714.414 135.477C717.012 132.732 720.039 130.057 723.555 127.518C724.834 126.58 726.172 125.672 727.588 124.803V124.793H727.598C728.545 124.187 729.512 123.611 730.518 123.035C731.426 122.518 732.295 121.99 733.125 121.463C734.385 120.662 735.576 119.832 736.689 118.992C739.805 116.658 742.383 114.197 744.521 111.707C755.869 98.4941 754.814 84.4316 754.746 83.6699C754.59 82.1367 754.883 80.6719 755.527 79.3926C760.898 81.6387 765.879 84.7344 770.283 88.5527Z" fill="#4D5166"/>
<path d="M755.107 180.447C752.715 181.414 750.234 182.234 747.656 182.879C744.492 183.67 741.328 184.168 738.193 184.393C732.861 178.24 724.707 165.936 724.258 147.937C724.17 144.168 724.414 140.135 725.098 135.857C725.342 134.305 725.654 132.703 726.025 131.082C726.27 129.988 726.553 128.885 726.855 127.762C727.129 126.756 727.373 125.779 727.588 124.803V124.793H727.598C727.91 123.338 728.164 121.922 728.359 120.535C728.906 116.688 728.994 113.123 728.74 109.852C727.422 92.4883 716.738 83.2988 716.143 82.8008C714.951 81.8242 714.121 80.5742 713.672 79.2168C716.055 78.2305 718.545 77.4199 721.113 76.7754C724.277 75.9844 727.441 75.4863 730.586 75.2617C735.918 81.4141 744.072 93.709 744.521 111.707C744.609 115.486 744.365 119.52 743.682 123.807C743.437 125.359 743.125 126.951 742.754 128.572C742.51 129.666 742.227 130.77 741.924 131.893C741.65 132.898 741.406 133.885 741.191 134.861H741.182V134.871C740.869 136.326 740.615 137.742 740.42 139.119C739.863 142.977 739.785 146.531 740.039 149.803C741.357 167.166 752.041 176.355 752.627 176.854C753.828 177.83 754.658 179.08 755.107 180.447Z" fill="#4D5166"/>
<path d="M784.814 150.994C782.568 156.355 779.463 161.326 775.654 165.721C767.539 165.135 753.076 162.205 740.039 149.803C737.295 147.205 734.619 144.178 732.08 140.662C731.143 139.383 730.234 138.035 729.355 136.619H729.346C728.75 135.672 728.174 134.705 727.598 133.699C727.08 132.791 726.553 131.922 726.025 131.082C725.215 129.822 724.395 128.631 723.555 127.518C721.221 124.412 718.76 121.834 716.27 119.695C702.813 108.152 688.477 109.451 688.291 109.471C686.738 109.627 685.244 109.324 683.955 108.66C686.211 103.299 689.307 98.3281 693.115 93.9336C701.24 94.5195 715.703 97.4492 728.74 109.852C731.475 112.459 734.15 115.477 736.689 118.992C737.617 120.262 738.525 121.609 739.414 123.025C740.01 123.973 740.596 124.949 741.172 125.955C741.689 126.863 742.217 127.732 742.754 128.572C743.555 129.832 744.385 131.023 745.225 132.137C747.559 135.242 750.02 137.82 752.51 139.959C765.967 151.492 780.293 150.203 780.479 150.184C782.031 150.018 783.525 150.33 784.814 150.994Z" fill="#4D5166"/>
<path d="M809.063 262.627C808.507 262.627 807.942 262.566 807.376 262.443C803.163 261.516 800.498 257.348 801.425 253.134L819.896 169.205C820.824 164.992 824.99 162.331 829.206 163.254C833.419 164.182 836.084 168.35 835.157 172.563L816.686 256.492C815.884 260.14 812.651 262.627 809.063 262.627Z" fill="#973D42"/>
<path d="M835.924 195.234C870.442 195.234 898.424 167.252 898.424 132.734C898.424 98.2166 870.442 70.2344 835.924 70.2344C801.406 70.2344 773.424 98.2166 773.424 132.734C773.424 167.252 801.406 195.234 835.924 195.234Z" fill="#E6C067"/>
<path d="M824.031 121.93C821.454 121.93 818.932 120.656 817.441 118.324L815.698 115.598L812.972 117.34C809.335 119.665 804.505 118.602 802.182 114.965C799.857 111.329 800.921 106.498 804.557 104.175L813.865 98.2246C817.504 95.8985 822.333 96.9629 824.655 100.6L830.606 109.908C832.931 113.544 831.867 118.374 828.231 120.698C826.928 121.532 825.471 121.93 824.031 121.93Z" fill="#973D42"/>
<path d="M869.811 132.005C867.233 132.005 864.711 130.731 863.221 128.399L861.478 125.673L858.751 127.415C855.117 129.74 850.284 128.677 847.961 125.04C845.637 121.404 846.7 116.574 850.336 114.25L859.645 108.299C861.39 107.182 863.506 106.807 865.531 107.251C867.555 107.696 869.318 108.928 870.435 110.674L876.386 119.983C878.71 123.619 877.646 128.45 874.011 130.773C872.707 131.607 871.25 132.005 869.811 132.005Z" fill="#973D42"/>
<path d="M836.467 167.956C833.781 167.956 831.07 167.663 828.368 167.069C816.852 164.534 807.446 156.925 802.564 146.191C800.778 142.264 802.514 137.631 806.441 135.845C810.369 134.058 815.001 135.794 816.788 139.722C819.615 145.936 825.06 150.342 831.728 151.81C838.394 153.277 845.186 151.564 850.359 147.11C853.631 144.295 858.562 144.665 861.377 147.936C864.191 151.206 863.822 156.138 860.552 158.953C853.711 164.841 845.232 167.956 836.467 167.956Z" fill="#973D42"/>
<path d="M842.795 182.057C842.238 182.057 841.674 181.996 841.107 181.872C836.894 180.945 834.229 176.777 835.157 172.563L838.516 157.304C839.441 153.09 843.616 150.422 847.824 151.354C852.038 152.28 854.702 156.448 853.774 160.662L850.416 175.922C849.615 179.569 846.383 182.057 842.795 182.057Z" fill="#973D42"/>
<path d="M812.276 175.34C811.72 175.34 811.155 175.279 810.589 175.155C806.375 174.229 803.711 170.061 804.639 165.847L807.997 150.587C808.923 146.373 813.097 143.708 817.306 144.637C821.52 145.563 824.184 149.731 823.256 153.945L819.897 169.205C819.096 172.853 815.863 175.34 812.276 175.34Z" fill="#973D42"/>
<path d="M918.841 247H573.347C564.414 247 555.914 243.146 550.03 236.424C544.146 229.703 541.449 220.771 542.63 211.915L548.182 170.274C554.578 122.3 578.155 78.3213 614.57 46.4385C650.985 14.5576 697.694 -3 746.094 -3C794.493 -3 841.202 14.5576 877.617 46.4395C914.032 78.3213 937.61 122.301 944.006 170.275L949.558 211.916C950.738 220.771 948.041 229.704 942.157 236.425C936.272 243.146 927.773 247 918.841 247ZM746.094 12.625C701.481 12.625 658.428 28.8086 624.862 58.1953C591.298 87.583 569.565 128.12 563.669 172.341L558.117 213.981C557.531 218.371 558.869 222.8 561.786 226.132C564.704 229.464 568.918 231.375 573.347 231.375H918.84C923.269 231.375 927.482 229.464 930.4 226.132C933.317 222.8 934.654 218.371 934.069 213.981L928.518 172.341C922.621 128.12 900.889 87.583 867.324 58.1953C833.76 28.8086 790.706 12.625 746.094 12.625Z" fill="#4D5166"/>
<path d="M851.265 489.188H648.735C635.282 489.188 624.04 478.949 622.784 465.556L601.562 239.188H898.438L877.216 465.556C875.96 478.949 864.717 489.188 851.265 489.188Z" fill="#ECA559"/>
<path d="M750 465.75C745.686 465.75 742.188 462.252 742.188 457.938V286.062C742.188 281.748 745.686 278.25 750 278.25C754.314 278.25 757.812 281.748 757.812 286.062V457.938C757.812 462.252 754.314 465.75 750 465.75Z" fill="#B68045"/>
<path d="M789.072 465.751C788.722 465.751 788.365 465.728 788.007 465.679C783.731 465.096 780.739 461.157 781.321 456.882L804.759 285.007C805.342 280.732 809.269 277.74 813.556 278.321C817.831 278.904 820.823 282.843 820.241 287.118L796.804 458.993C796.27 462.91 792.918 465.751 789.072 465.751Z" fill="#B68045"/>
<path d="M835.947 465.751C835.597 465.751 835.24 465.728 834.882 465.679C830.606 465.096 827.614 461.157 828.196 456.882L851.634 285.007C852.217 280.732 856.144 277.74 860.431 278.321C864.706 278.904 867.698 282.843 867.116 287.118L843.679 458.993C843.145 462.91 839.793 465.751 835.947 465.751Z" fill="#B68045"/>
<path d="M710.928 465.751C707.082 465.751 703.73 462.91 703.196 458.993L679.759 287.118C679.176 282.843 682.169 278.904 686.444 278.321C690.731 277.748 694.659 280.733 695.241 285.007L718.679 456.882C719.262 461.157 716.269 465.096 711.993 465.679C711.635 465.728 711.279 465.751 710.928 465.751Z" fill="#B68045"/>
<path d="M664.053 465.751C660.207 465.751 656.855 462.91 656.321 458.993L632.884 287.118C632.301 282.843 635.294 278.904 639.569 278.321C643.855 277.748 647.784 280.733 648.366 285.007L671.804 456.882C672.387 461.157 669.394 465.096 665.118 465.679C664.76 465.728 664.404 465.751 664.053 465.751Z" fill="#B68045"/>
<path d="M905.232 254.813H594.768C589.891 254.813 585.938 250.859 585.938 245.982V232.392C585.938 227.515 589.891 223.562 594.768 223.562H905.233C910.11 223.562 914.063 227.515 914.063 232.392V245.982C914.063 250.859 910.109 254.813 905.232 254.813Z" fill="#B68045"/>
<path d="M656.25 332.938L687.5 286.062L718.75 332.938H656.25Z" fill="#953C41"/>
<path d="M781.25 332.938L812.5 286.062L843.75 332.938H781.25Z" fill="#953C41"/>
<path d="M752.279 442.312H747.72C715.601 442.312 686.238 424.166 671.874 395.438C723.446 405.752 776.551 405.752 828.124 395.438C813.761 424.166 784.398 442.312 752.279 442.312Z" fill="#953C41"/>
<path d="M726.562 402.478V411.062C726.562 415.379 723.066 418.875 718.75 418.875C714.434 418.875 710.938 415.379 710.938 411.062V401.248C716.143 401.766 721.348 402.176 726.562 402.478Z" fill="#522124"/>
<path d="M789.062 401.248V411.062C789.062 415.379 785.566 418.875 781.25 418.875C776.934 418.875 773.438 415.379 773.438 411.062V402.478C778.652 402.176 783.857 401.766 789.062 401.248Z" fill="#522124"/>
<path d="M742.188 426.688V442.127C736.855 441.785 731.631 440.945 726.562 439.637V426.688C726.562 422.371 730.059 418.875 734.375 418.875C738.691 418.875 742.188 422.371 742.188 426.688Z" fill="#522124"/>
<path d="M773.438 426.688V439.637C768.369 440.945 763.145 441.785 757.812 442.127V426.688C757.812 422.371 761.309 418.875 765.625 418.875C769.941 418.875 773.438 422.371 773.438 426.688Z" fill="#522124"/>
<path d="M1338.5 459.001L1169.3 489.187L1056 165.487L1088.21 34.6807L1257.42 4.49414L1332.88 116.092L1338.5 459.001Z" fill="#424557"/>
<path d="M1354.13 481.375H1182.25L1127.57 137.625L1182.25 12.625H1354.13L1408.82 137.625L1354.13 481.375Z" fill="#4D5166"/>
<path d="M1354.13 481.375H1182.25L1127.57 137.625L1182.25 12.625H1354.13L1408.82 137.625L1354.13 481.375Z" fill="#4D5166"/>
<path d="M1408.82 137.625L1407.51 145.848L1371.29 153.094C1370.77 153.201 1370.25 153.25 1369.74 153.25C1366.1 153.25 1362.84 150.682 1362.1 146.971C1361.25 142.742 1363.99 138.621 1368.22 137.781L1405.61 130.301L1408.82 137.625Z" fill="#2C2E3B"/>
<path d="M1174.29 146.971C1173.54 150.682 1170.28 153.25 1166.64 153.25C1166.13 153.25 1165.61 153.201 1165.1 153.094L1128.87 145.848L1127.57 137.625L1130.77 130.301L1168.16 137.781C1172.39 138.621 1175.13 142.742 1174.29 146.971Z" fill="#2C2E3B"/>
<path d="M1355.84 470.633L1354.13 481.375H1344.36L1324.44 454.812C1321.85 451.365 1322.56 446.463 1326 443.875C1329.45 441.287 1334.35 441.98 1336.94 445.437L1355.84 470.633Z" fill="#2C2E3B"/>
<path d="M1211.94 454.812L1192.02 481.375H1182.25L1180.54 470.633L1199.44 445.437C1202.03 441.98 1206.93 441.287 1210.38 443.875C1213.83 446.463 1214.53 451.365 1211.94 454.812Z" fill="#2C2E3B"/>
<path d="M1210.38 50.125C1208.97 51.1797 1207.33 51.6875 1205.7 51.6875C1203.32 51.6875 1200.97 50.6133 1199.44 48.5625L1178.66 20.8477L1182.25 12.625H1192.02L1211.94 39.1875C1214.53 42.6348 1213.83 47.5371 1210.38 50.125Z" fill="#2C2E3B"/>
<path d="M1357.72 20.8477L1336.94 48.5625C1335.41 50.6133 1333.06 51.6875 1330.68 51.6875C1329.05 51.6875 1327.41 51.1797 1326 50.125C1322.56 47.5371 1321.85 42.6348 1324.44 39.1875L1344.36 12.625H1354.13L1357.72 20.8477Z" fill="#2C2E3B"/>
<path d="M1330.69 450.125H1205.69L1166.63 145.438L1205.69 43.875H1330.69L1369.75 145.438L1330.69 450.125Z" fill="#9AA2CB"/>
<path d="M1338.5 129.812H1283.82V75.125H1252.57V129.812H1197.88V161.062H1252.57V286.062H1283.82V161.062H1338.5V129.812Z" fill="#9C3E44"/>
<path d="M1291.63 332.938H1244.75C1240.44 332.938 1236.94 329.439 1236.94 325.125C1236.94 320.811 1240.44 317.312 1244.75 317.312H1291.63C1295.94 317.312 1299.44 320.811 1299.44 325.125C1299.44 329.439 1295.94 332.938 1291.63 332.938Z" fill="#9C3E44"/>
<path d="M1315.07 364.188H1221.32C1217 364.188 1213.5 360.689 1213.5 356.375C1213.5 352.061 1217 348.562 1221.32 348.562H1315.07C1319.38 348.562 1322.88 352.061 1322.88 356.375C1322.88 360.689 1319.38 364.188 1315.07 364.188Z" fill="#9C3E44"/>
<path d="M1291.63 395.438H1244.75C1240.44 395.438 1236.94 391.939 1236.94 387.625C1236.94 383.311 1240.44 379.812 1244.75 379.812H1291.63C1295.94 379.812 1299.44 383.311 1299.44 387.625C1299.44 391.939 1295.94 395.438 1291.63 395.438Z" fill="#9C3E44"/>
<path d="M1843.01 189.335L1828.12 192.312V122H1857.45C1862.83 122 1867.19 126.359 1867.19 131.736V159.846C1867.19 174.181 1857.07 186.523 1843.01 189.335Z" fill="#E6C067"/>
<path d="M1656.99 189.335L1671.88 192.312V122H1642.55C1637.17 122 1632.81 126.359 1632.81 131.736V159.846C1632.81 174.181 1642.93 186.523 1656.99 189.335Z" fill="#E6C067"/>
<path d="M1884.52 312.326L1796.88 293.875H1703.12L1615.48 312.326C1580.05 319.785 1554.69 351.044 1554.69 387.251V489.188H1945.31V387.251C1945.31 351.044 1919.95 319.785 1884.52 312.326Z" fill="#4D5166"/>
<path d="M1770.79 317.312H1729.21C1714.8 317.312 1703.12 305.636 1703.12 291.231V254.812H1796.88V291.231C1796.88 305.636 1785.2 317.312 1770.79 317.312Z" fill="#E6C067"/>
<path d="M1602.61 153.886L1656.25 143.238L1650.17 112.585L1596.52 123.233L1602.61 153.886Z" fill="#E65C64"/>
<path d="M1598.7 170.604L1612.6 167.843C1617.23 166.925 1620.23 162.431 1619.32 157.806L1610.47 113.251C1609.55 108.626 1605.06 105.621 1600.43 106.539L1586.53 109.3C1581.91 110.218 1578.9 114.712 1579.82 119.337L1588.66 163.892C1589.58 168.518 1594.08 171.522 1598.7 170.604Z" fill="#993D43"/>
<path d="M1890.8 51.0502L1837.25 62.1846L1843.61 92.7814L1897.16 81.6471L1890.8 51.0502Z" fill="#E65C64"/>
<path d="M1664.06 59.5V210.729C1664.06 225.259 1673.86 237.698 1687.5 241.402C1687.5 253.123 1697 262.625 1708.72 262.625H1791.28C1803 262.625 1812.5 253.123 1812.5 241.402C1826.14 237.698 1835.94 225.259 1835.94 210.729V59.5H1664.06Z" fill="#FFD572"/>
<path d="M1648.44 30.8369V146.546C1648.44 153.687 1655.43 158.73 1662.21 156.472C1667.98 154.548 1671.88 149.145 1671.88 143.061V83.4687C1671.88 74.5459 1679.11 67.3125 1688.03 67.3125H1811.97C1820.89 67.3125 1828.12 74.5459 1828.12 83.4687V143.061C1828.12 149.145 1832.02 154.547 1837.79 156.472C1844.57 158.73 1851.56 153.687 1851.56 146.546V30.8369C1851.56 16.4639 1839.91 4.8125 1825.54 4.8125H1674.46C1660.09 4.8125 1648.44 16.4639 1648.44 30.8369Z" fill="#4D5166"/>
<path d="M1804.69 106.375H1695.31C1691 106.375 1687.5 102.877 1687.5 98.5625C1687.5 94.248 1691 90.75 1695.31 90.75H1804.69C1809 90.75 1812.5 94.248 1812.5 98.5625C1812.5 102.877 1809 106.375 1804.69 106.375Z" fill="#993D43"/>
<path d="M1796.88 114.188C1792.56 114.188 1789.06 110.689 1789.06 106.375V90.75C1789.06 86.4355 1792.56 82.9375 1796.88 82.9375C1801.19 82.9375 1804.69 86.4355 1804.69 90.75V106.375C1804.69 110.689 1801.19 114.188 1796.88 114.188Z" fill="#993D43"/>
<path d="M1773.44 114.188C1769.12 114.188 1765.62 110.689 1765.62 106.375V90.75C1765.62 86.4355 1769.12 82.9375 1773.44 82.9375C1777.75 82.9375 1781.25 86.4355 1781.25 90.75V106.375C1781.25 110.689 1777.75 114.188 1773.44 114.188Z" fill="#993D43"/>
<path d="M1750 114.188C1745.69 114.188 1742.19 110.689 1742.19 106.375V90.75C1742.19 86.4355 1745.69 82.9375 1750 82.9375C1754.31 82.9375 1757.81 86.4355 1757.81 90.75V106.375C1757.81 110.689 1754.31 114.188 1750 114.188Z" fill="#993D43"/>
<path d="M1726.56 114.188C1722.25 114.188 1718.75 110.689 1718.75 106.375V90.75C1718.75 86.4355 1722.25 82.9375 1726.56 82.9375C1730.88 82.9375 1734.38 86.4355 1734.38 90.75V106.375C1734.38 110.689 1730.88 114.188 1726.56 114.188Z" fill="#993D43"/>
<path d="M1703.12 114.188C1698.81 114.188 1695.31 110.689 1695.31 106.375V90.75C1695.31 86.4355 1698.81 82.9375 1703.12 82.9375C1707.44 82.9375 1710.94 86.4355 1710.94 90.75V106.375C1710.94 110.689 1707.44 114.188 1703.12 114.188Z" fill="#993D43"/>
<path d="M1714.84 161.062C1707.85 161.062 1701.63 156.584 1699.42 149.945L1695.31 137.625H1734.38L1730.27 149.945C1728.06 156.584 1721.84 161.062 1714.84 161.062Z" fill="#4D5166"/>
<path d="M1785.16 161.062C1778.16 161.062 1771.94 156.584 1769.73 149.945L1765.62 137.625H1804.69L1800.58 149.945C1798.37 156.584 1792.15 161.062 1785.16 161.062Z" fill="#4D5166"/>
<path d="M1769.33 231.375H1730.67C1723.66 231.375 1717.56 226.609 1715.86 219.815L1710.94 200.125H1789.06L1784.14 219.815C1782.44 226.609 1776.34 231.375 1769.33 231.375Z" fill="#4D5166"/>
<path d="M1907.26 95.4961L1893.38 98.3818C1888.77 99.3418 1884.25 96.3779 1883.29 91.7617L1874.04 47.2891C1873.08 42.6728 1876.04 38.1523 1880.66 37.1914L1894.54 34.3057C1899.15 33.3457 1903.67 36.3096 1904.63 40.9258L1913.88 85.3984C1914.84 90.0156 1911.88 94.5361 1907.26 95.4961Z" fill="#993D43"/>
<path d="M1750 489.188L1687.5 332.938C1726.84 352.609 1773.16 352.609 1812.5 332.938L1750 489.188Z" fill="#E65C64"/>
<path d="M1750 489.188L1812.5 286.062L1875 301.688L1835.94 325.125L1867.19 356.375L1750 489.188Z" fill="#2E303D"/>
<path d="M1750 489.188L1687.5 286.062L1625 301.688L1664.06 325.125L1632.81 356.375L1750 489.188Z" fill="#2E303D"/>
<path d="M1726.56 200.125V207.938C1726.56 212.252 1730.06 215.75 1734.38 215.75C1738.69 215.75 1742.19 212.252 1742.19 207.938V200.125H1726.56Z" fill="#2E303D"/>
<path d="M1757.81 200.125V207.938C1757.81 212.252 1761.31 215.75 1765.62 215.75C1769.94 215.75 1773.44 212.252 1773.44 207.938V200.125H1757.81Z" fill="#2E303D"/>
<path d="M1750 215.75C1745.69 215.75 1742.19 219.248 1742.19 223.562V231.375H1757.81V223.562C1757.81 219.248 1754.31 215.75 1750 215.75Z" fill="#2E303D"/>
<path d="M1773.44 51.6894C1770.17 51.6894 1767.12 49.6191 1766.03 46.3457C1764.66 42.2519 1766.87 37.8271 1770.97 36.4629L1817.84 20.8379C1821.94 19.4746 1826.36 21.6865 1827.72 25.7793C1829.09 29.873 1826.88 34.2978 1822.78 35.6621L1775.91 51.2871C1775.09 51.5595 1774.25 51.6894 1773.44 51.6894Z" fill="#A7B0DE"/>
<path d="M1789.07 51.6894C1786.2 51.6894 1783.44 50.1064 1782.08 47.3691L1774.26 31.7441C1772.33 27.8848 1773.9 23.1914 1777.76 21.2627C1781.61 19.334 1786.31 20.8975 1788.24 24.7559L1796.05 40.3809C1797.98 44.2402 1796.42 48.9336 1792.56 50.8623C1791.44 51.4228 1790.24 51.6894 1789.07 51.6894Z" fill="#A7B0DE"/>
<path d="M1812.51 51.6894C1809.64 51.6894 1806.88 50.1064 1805.51 47.3691L1797.7 31.7441C1795.77 27.8848 1797.33 23.1914 1801.19 21.2627C1805.05 19.333 1809.75 20.8975 1811.67 24.7559L1819.49 40.3809C1821.42 44.2402 1819.85 48.9336 1815.99 50.8623C1814.87 51.4228 1813.68 51.6894 1812.51 51.6894Z" fill="#A7B0DE"/>
<path d="M2406.25 489.188H2093.75L2109.38 340.75H2390.62L2406.25 489.188Z" fill="#4D5166"/>
<path d="M2250 411.062C2362.18 411.062 2453.12 320.12 2453.12 207.938C2453.12 95.7547 2362.18 4.8125 2250 4.8125C2137.82 4.8125 2046.88 95.7547 2046.88 207.938C2046.88 320.12 2137.82 411.062 2250 411.062Z" fill="#E2E2E2"/>
<path d="M2413.32 200.125C2409.33 200.125 2405.93 197.093 2405.55 193.047C2402.27 158.339 2387.15 125.294 2362.97 99.9971C2338.87 74.7783 2306.68 58.1836 2272.33 53.2695C2268.06 52.6592 2265.09 48.7002 2265.7 44.4297C2266.31 40.1582 2270.27 37.1933 2274.54 37.8017C2312.34 43.209 2347.76 61.4629 2374.27 89.2002C2400.86 117.027 2417.5 153.385 2421.11 191.576C2421.51 195.871 2418.36 199.683 2414.06 200.089C2413.81 200.114 2413.56 200.125 2413.32 200.125Z" fill="#999999"/>
<path d="M2127.72 325.125C2125.57 325.125 2123.43 324.247 2121.89 322.522C2103.11 301.54 2089.67 276.065 2083.03 248.853C2082 244.661 2084.57 240.434 2088.76 239.41C2092.95 238.389 2097.18 240.954 2098.21 245.147C2104.25 269.873 2116.46 293.026 2133.53 312.103C2136.41 315.317 2136.14 320.257 2132.92 323.134C2131.43 324.469 2129.57 325.125 2127.72 325.125Z" fill="#999999"/>
<path d="M2367.19 442.312C2291.96 472.403 2208.04 472.403 2132.81 442.312V411.062C2208.04 441.153 2291.96 441.153 2367.19 411.062V442.312Z" fill="#E65C64"/>
<path d="M2187.06 236.794L2201.41 265.871L2233.5 270.533L2210.28 293.167L2215.76 325.125L2187.06 310.036L2158.36 325.125L2163.84 293.167L2140.62 270.533L2172.71 265.871L2187.06 236.794Z" fill="#E6C067"/>
<path d="M2311.33 129.048L2331 168.915L2375 175.308L2343.16 206.34L2350.68 250.158L2311.33 229.47L2271.98 250.158L2279.49 206.34L2247.66 175.308L2291.65 168.915L2311.33 129.048Z" fill="#E6C067"/>
<path d="M2116.75 135.231L2131.1 164.309L2163.19 168.971L2139.97 191.604L2145.45 223.563L2116.75 208.474L2088.05 223.563L2093.53 191.604L2070.31 168.971L2102.4 164.309L2116.75 135.231Z" fill="#E6C067"/>
<path d="M2265.62 325.125C2291.51 325.125 2312.5 346.111 2312.5 372C2312.5 346.111 2333.49 325.125 2359.38 325.125C2333.49 325.125 2312.5 304.139 2312.5 278.25C2312.5 304.139 2291.51 325.125 2265.62 325.125Z" fill="#E65C64"/>
<path d="M2062.5 51.6875C2088.39 51.6875 2109.38 72.6738 2109.38 98.5625C2109.38 72.6738 2130.36 51.6875 2156.25 51.6875C2130.36 51.6875 2109.38 30.7012 2109.38 4.8125C2109.38 30.7012 2088.39 51.6875 2062.5 51.6875Z" fill="#E65C64"/>
<path d="M2179.69 114.188C2205.58 114.188 2226.56 135.174 2226.56 161.062C2226.56 135.174 2247.55 114.188 2273.44 114.188C2247.55 114.188 2226.56 93.2012 2226.56 67.3125C2226.56 93.2012 2205.58 114.188 2179.69 114.188Z" fill="#E65C64"/>
<path d="M2359.38 286.929C2393.42 286.929 2421.01 314.523 2421.01 348.562C2421.01 314.523 2448.6 286.929 2482.64 286.929C2448.6 286.929 2421.01 259.334 2421.01 225.295C2421.01 259.334 2393.42 286.929 2359.38 286.929Z" fill="#E6C067"/>
<path d="M2407.98 43.0088C2424.76 43.0088 2438.37 56.6123 2438.37 73.3926C2438.37 56.6123 2451.97 43.0088 2468.75 43.0088C2451.97 43.0088 2438.37 29.4053 2438.37 12.625C2438.37 29.4053 2424.76 43.0088 2407.98 43.0088Z" fill="#E65C64"/>
<path d="M2015.62 365.054C2032.41 365.054 2046.01 378.657 2046.01 395.438C2046.01 378.657 2059.61 365.054 2076.39 365.054C2059.61 365.054 2046.01 351.45 2046.01 334.67C2046.01 351.45 2032.41 365.054 2015.62 365.054Z" fill="#E65C64"/>
<path d="M2431.42 388.491C2448.2 388.491 2461.8 402.095 2461.8 418.875C2461.8 402.095 2475.41 388.491 2492.19 388.491C2475.41 388.491 2461.8 374.888 2461.8 358.107C2461.8 374.888 2448.2 388.491 2431.42 388.491Z" fill="#E65C64"/>
<path d="M2750 492.188C2827.67 492.188 2890.62 418.734 2890.62 328.125C2890.62 237.516 2827.67 164.062 2750 164.062C2672.33 164.062 2609.38 237.516 2609.38 328.125C2609.38 418.734 2672.33 492.188 2750 492.188Z" fill="#797FA0"/>
<path d="M2922.43 297.393C2944.18 360.637 2910.09 429.687 2910.09 429.687C2910.09 429.687 2840.75 396.198 2819 332.954C2797.26 269.71 2802.79 210.479 2831.35 200.659C2859.91 190.839 2900.69 234.147 2922.43 297.393Z" fill="#4D5166"/>
<path d="M2924.27 387.883C2900.78 387.141 2870.92 353.643 2853.65 306.555C2837.36 262.099 2837.46 219.621 2852.2 201.756C2877.35 211.419 2905.6 248.427 2922.44 297.389C2933.4 329.269 2930.17 362.632 2924.27 387.883Z" fill="#323542"/>
<path d="M2577.57 297.393C2555.82 360.637 2589.91 429.687 2589.91 429.687C2589.91 429.687 2659.25 396.198 2681 332.954C2702.74 269.71 2697.22 210.479 2668.65 200.659C2640.09 190.839 2599.31 234.147 2577.57 297.393Z" fill="#4D5166"/>
<path d="M2575.73 387.883C2599.22 387.141 2629.08 353.643 2646.35 306.555C2662.64 262.099 2662.54 219.621 2647.8 201.756C2622.65 211.419 2594.4 248.427 2577.56 297.389C2566.6 329.269 2569.83 362.632 2575.73 387.883Z" fill="#323542"/>
<path d="M2863.82 7.8125C2863.82 7.8125 2808.57 38.1523 2793.04 91.0322L2878.36 116.088C2893.89 63.208 2863.82 7.8125 2863.82 7.8125Z" fill="#4D5166"/>
<path d="M2636.18 7.8125C2636.18 7.8125 2691.43 38.1523 2706.96 91.0322L2621.64 116.088C2606.11 63.208 2636.18 7.8125 2636.18 7.8125Z" fill="#4D5166"/>
<path d="M2811.3 248.005C2770.99 238.172 2729.02 238.172 2688.7 248.005C2641.6 259.492 2597.48 219.775 2601.86 169.828C2607.29 108.023 2657.28 60.7012 2717.15 60.7012H2782.85C2842.72 60.7012 2892.72 108.023 2898.14 169.828C2902.52 219.775 2858.4 259.492 2811.3 248.005Z" fill="#8A91B6"/>
<path d="M2703.12 226.562C2732.63 211.809 2767.37 211.809 2796.88 226.562L2750 296.875L2703.12 226.562Z" fill="#E6C067"/>
<path d="M2750 125C2745.69 125 2742.19 121.502 2742.19 117.188C2742.19 108.572 2735.18 101.562 2726.56 101.562H2710.94C2702.32 101.562 2695.31 94.5527 2695.31 85.9375C2695.31 81.623 2698.81 78.125 2703.12 78.125C2707.44 78.125 2710.94 81.623 2710.94 85.9375C2710.94 85.9443 2710.94 85.9473 2710.94 85.9473L2726.56 85.9375C2735.89 85.9375 2744.27 90.042 2750 96.5381C2755.73 90.042 2764.11 85.9375 2773.44 85.9375H2789.06C2789.06 81.623 2792.56 78.125 2796.88 78.125C2801.19 78.125 2804.69 81.623 2804.69 85.9375C2804.69 94.5527 2797.68 101.562 2789.06 101.562H2773.44C2764.82 101.562 2757.81 108.572 2757.81 117.188C2757.81 121.502 2754.31 125 2750 125Z" fill="#323542"/>
<path d="M2820.31 210.938C2846.2 210.938 2867.19 186.453 2867.19 156.25C2867.19 126.047 2846.2 101.562 2820.31 101.562C2794.42 101.562 2773.44 126.047 2773.44 156.25C2773.44 186.453 2794.42 210.938 2820.31 210.938Z" fill="#4D5166"/>
<path d="M2679.69 210.938C2705.58 210.938 2726.56 186.453 2726.56 156.25C2726.56 126.047 2705.58 101.562 2679.69 101.562C2653.8 101.562 2632.81 126.047 2632.81 156.25C2632.81 186.453 2653.8 210.938 2679.69 210.938Z" fill="#4D5166"/>
<path d="M2778.72 171.197L2831.48 131.629L2835.32 148.893C2839.5 167.743 2821.87 184.141 2803.37 178.592L2778.72 171.197Z" fill="#E65C64"/>
<path d="M2721.28 171.197L2668.52 131.629L2664.68 148.893C2660.5 167.743 2678.13 184.141 2696.63 178.592L2721.28 171.197Z" fill="#E65C64"/>
<path d="M2804.69 421.875C2804.69 445.42 2800.37 467.09 2793.13 484.316C2779.54 489.434 2765.05 492.188 2750 492.188C2734.95 492.188 2720.46 489.434 2706.87 484.316C2699.63 467.09 2695.31 445.42 2695.31 421.875C2695.31 365.781 2719.79 320.312 2750 320.312C2780.21 320.312 2804.69 365.781 2804.69 421.875Z" fill="#E65C64"/>
<path d="M2825.51 429.688H2815.11C2792.1 429.688 2773.44 448.346 2773.44 471.362C2773.44 482.863 2782.76 492.188 2794.26 492.188H2846.36C2857.86 492.188 2867.19 482.863 2867.19 471.362C2867.19 448.346 2848.53 429.688 2825.51 429.688Z" fill="#4D5166"/>
<path d="M2820.31 492.188C2816 492.188 2812.5 488.689 2812.5 484.375V468.75C2812.5 464.436 2816 460.938 2820.31 460.938C2824.63 460.938 2828.12 464.436 2828.12 468.75V484.375C2828.12 488.689 2824.63 492.188 2820.31 492.188Z" fill="#2E303D"/>
<path d="M2851.57 492.189C2848.7 492.189 2845.94 490.606 2844.57 487.869L2836.76 472.244C2834.83 468.385 2836.4 463.691 2840.26 461.763C2844.12 459.834 2848.81 461.398 2850.74 465.256L2858.55 480.881C2860.48 484.74 2858.92 489.434 2855.06 491.362C2853.93 491.923 2852.74 492.189 2851.57 492.189Z" fill="#2E303D"/>
<path d="M2789.06 492.189C2787.88 492.189 2786.69 491.924 2785.57 491.362C2781.71 489.433 2780.15 484.74 2782.08 480.881L2789.89 465.256C2791.82 461.398 2796.51 459.832 2800.37 461.763C2804.23 463.692 2805.79 468.385 2803.86 472.244L2796.05 487.869C2794.68 490.606 2791.92 492.189 2789.06 492.189Z" fill="#2E303D"/>
<path d="M2674.49 429.688H2684.89C2707.9 429.688 2726.56 448.346 2726.56 471.362C2726.56 482.863 2717.24 492.188 2705.74 492.188H2653.64C2642.14 492.188 2632.81 482.863 2632.81 471.362C2632.81 448.346 2651.47 429.688 2674.49 429.688Z" fill="#4D5166"/>
<path d="M2679.69 492.188C2675.37 492.188 2671.88 488.689 2671.88 484.375V468.75C2671.88 464.436 2675.37 460.938 2679.69 460.938C2684 460.938 2687.5 464.436 2687.5 468.75V484.375C2687.5 488.689 2684 492.188 2679.69 492.188Z" fill="#2E303D"/>
<path d="M2648.43 492.189C2647.26 492.189 2646.07 491.924 2644.94 491.362C2641.09 489.433 2639.52 484.74 2641.45 480.881L2649.26 465.256C2651.19 461.398 2655.88 459.832 2659.74 461.763C2663.6 463.692 2665.17 468.385 2663.24 472.244L2655.43 487.869C2654.06 490.606 2651.3 492.189 2648.43 492.189Z" fill="#2E303D"/>
<path d="M2710.94 492.189C2708.08 492.189 2705.32 490.606 2703.95 487.869L2696.14 472.244C2694.21 468.385 2695.77 463.691 2699.63 461.763C2703.49 459.833 2708.18 461.398 2710.11 465.256L2717.92 480.881C2719.85 484.74 2718.29 489.434 2714.43 491.362C2713.31 491.923 2712.12 492.189 2710.94 492.189Z" fill="#2E303D"/>
<path d="M3460.94 187.5H3421.88V257.812H3460.94V187.5Z" fill="#A9B2E0"/>
<path d="M3460.94 156.25H3421.88V226.562H3460.94V156.25Z" fill="#E6C067"/>
<path d="M3460.94 125H3421.88V195.312H3460.94V125Z" fill="#E65C64"/>
<path d="M3039.06 445.312C3039.06 471.201 3060.05 492.188 3085.94 492.188H3429.69V101.562H3085.94C3060.05 101.562 3039.06 80.5762 3039.06 54.6875V445.312Z" fill="#3B3F4E"/>
<path d="M3429.69 101.562H3085.94C3060.05 101.562 3039.06 80.5762 3039.06 54.6875C3039.06 28.7988 3060.05 7.8125 3085.94 7.8125H3429.69C3400.94 32.4521 3400.94 76.9229 3429.69 101.562Z" fill="#E6C067"/>
<path d="M3429.69 101.562H3085.94V492.188H3429.69V101.562Z" fill="#4D5166"/>
<path d="M3085.94 140.625H3076.78C3060.45 140.625 3045.09 134.263 3033.54 122.711C3030.49 119.66 3030.49 114.714 3033.54 111.663C3036.59 108.613 3041.54 108.613 3044.59 111.664C3053.19 120.264 3064.62 125 3076.78 125H3085.94C3090.25 125 3093.75 128.498 3093.75 132.812C3093.75 137.127 3090.25 140.625 3085.94 140.625Z" fill="#272933"/>
<path d="M3085.94 179.688H3076.78C3060.45 179.688 3045.09 173.325 3033.54 161.773C3030.49 158.723 3030.49 153.776 3033.54 150.726C3036.59 147.676 3041.54 147.676 3044.59 150.727C3053.19 159.326 3064.62 164.063 3076.78 164.063H3085.94C3090.25 164.063 3093.75 167.561 3093.75 171.875C3093.75 176.189 3090.25 179.688 3085.94 179.688Z" fill="#272933"/>
<path d="M3085.94 218.75H3076.78C3060.45 218.75 3045.09 212.388 3033.54 200.836C3030.49 197.785 3030.49 192.839 3033.54 189.788C3036.59 186.738 3041.54 186.738 3044.59 189.789C3053.19 198.389 3064.62 203.125 3076.78 203.125H3085.94C3090.25 203.125 3093.75 206.623 3093.75 210.938C3093.75 215.252 3090.25 218.75 3085.94 218.75Z" fill="#272933"/>
<path d="M3085.94 257.813H3076.78C3060.45 257.813 3045.09 251.45 3033.54 239.898C3030.49 236.848 3030.49 231.901 3033.54 228.851C3036.59 225.801 3041.54 225.801 3044.59 228.852C3053.19 237.451 3064.62 242.188 3076.78 242.188H3085.94C3090.25 242.188 3093.75 245.686 3093.75 250C3093.75 254.314 3090.25 257.813 3085.94 257.813Z" fill="#272933"/>
<path d="M3085.94 296.875H3076.78C3060.45 296.875 3045.09 290.513 3033.54 278.961C3030.49 275.91 3030.49 270.964 3033.54 267.913C3036.59 264.863 3041.54 264.863 3044.59 267.914C3053.19 276.514 3064.62 281.25 3076.78 281.25H3085.94C3090.25 281.25 3093.75 284.748 3093.75 289.063C3093.75 293.377 3090.25 296.875 3085.94 296.875Z" fill="#272933"/>
<path d="M3085.94 335.938H3076.78C3060.45 335.938 3045.09 329.575 3033.54 318.023C3030.49 314.973 3030.49 310.026 3033.54 306.976C3036.59 303.926 3041.54 303.926 3044.59 306.977C3053.19 315.576 3064.62 320.313 3076.78 320.313H3085.94C3090.25 320.313 3093.75 323.811 3093.75 328.125C3093.75 332.439 3090.25 335.938 3085.94 335.938Z" fill="#272933"/>
<path d="M3085.94 375H3076.78C3060.45 375 3045.09 368.638 3033.54 357.086C3030.49 354.035 3030.49 349.089 3033.54 346.038C3036.59 342.988 3041.54 342.988 3044.59 346.039C3053.19 354.639 3064.62 359.375 3076.78 359.375H3085.94C3090.25 359.375 3093.75 362.873 3093.75 367.188C3093.75 371.502 3090.25 375 3085.94 375Z" fill="#272933"/>
<path d="M3085.94 414.063H3076.78C3060.45 414.063 3045.09 407.7 3033.54 396.148C3030.49 393.098 3030.49 388.151 3033.54 385.101C3036.59 382.052 3041.54 382.051 3044.59 385.102C3053.19 393.701 3064.62 398.438 3076.78 398.438H3085.94C3090.25 398.438 3093.75 401.936 3093.75 406.25C3093.75 410.564 3090.25 414.063 3085.94 414.063Z" fill="#272933"/>
<path d="M3085.94 453.125H3076.78C3060.45 453.125 3045.09 446.763 3033.54 435.211C3030.49 432.16 3030.49 427.214 3033.54 424.163C3036.59 421.113 3041.54 421.113 3044.59 424.164C3053.19 432.764 3064.62 437.5 3076.78 437.5H3085.94C3090.25 437.5 3093.75 440.998 3093.75 445.312C3093.75 449.627 3090.25 453.125 3085.94 453.125Z" fill="#272933"/>
<path d="M3257.81 382.812C3326.85 382.812 3382.81 326.848 3382.81 257.812C3382.81 188.777 3326.85 132.812 3257.81 132.812C3188.78 132.812 3132.81 188.777 3132.81 257.812C3132.81 326.848 3188.78 382.812 3257.81 382.812Z" fill="#E65C64"/>
<path d="M3408.13 54.6875C3408.13 62.666 3409.66 70.6348 3412.72 78.125H3093.75C3087.29 78.125 3081.43 75.498 3077.18 71.2598C3072.94 67.0117 3070.31 61.1523 3070.31 54.6875C3070.31 41.748 3080.81 31.25 3093.75 31.25H3412.72C3409.66 38.7402 3408.13 46.709 3408.13 54.6875Z" fill="#937B42"/>
<path d="M3375 429.688H3140.62V460.938H3375V429.688Z" fill="#E6C067"/>
<path d="M3343.75 375C3361.01 375 3375 388.991 3375 406.25C3375 388.991 3388.99 375 3406.25 375C3388.99 375 3375 361.009 3375 343.75C3375 361.009 3361.01 375 3343.75 375Z" fill="#E6C067"/>
<path d="M3171.88 375C3154.62 375 3140.62 388.991 3140.62 406.25C3140.62 388.991 3126.63 375 3109.38 375C3126.63 375 3140.62 361.009 3140.62 343.75C3140.62 361.009 3154.62 375 3171.88 375Z" fill="#E6C067"/>
<path d="M3408.13 54.6875C3408.13 57.2949 3408.29 59.9121 3408.62 62.5H3101.56C3097.25 62.5 3093.75 59.0039 3093.75 54.6875C3093.75 50.3711 3097.25 46.875 3101.56 46.875H3408.62C3408.29 49.4629 3408.13 52.0801 3408.13 54.6875Z" fill="#5B4C29"/>
<path d="M3343.75 312.5H3171.88C3169.05 312.5 3166.44 310.975 3165.06 308.509C3163.68 306.045 3163.73 303.025 3165.21 300.613L3251.15 159.988C3252.57 157.666 3255.09 156.25 3257.81 156.25C3260.53 156.25 3263.06 157.666 3264.48 159.988L3350.42 300.613C3351.89 303.025 3351.95 306.045 3350.56 308.509C3349.18 310.975 3346.58 312.5 3343.75 312.5ZM3185.81 296.875H3329.82L3257.81 179.045L3185.81 296.875Z" fill="#2F323E"/>
<path d="M3257.81 359.375C3255.09 359.375 3252.57 357.959 3251.15 355.637L3165.21 215.012C3163.74 212.6 3163.68 209.58 3165.06 207.116C3166.44 204.651 3169.05 203.125 3171.88 203.125H3343.75C3346.58 203.125 3349.18 204.65 3350.57 207.116C3351.95 209.58 3351.89 212.6 3350.42 215.012L3264.48 355.637C3263.06 357.959 3260.53 359.375 3257.81 359.375ZM3185.81 218.75L3257.81 336.58L3329.82 218.75H3185.81Z" fill="#2F323E"/>
<path d="M3828.13 125C3826.13 125 3824.13 124.237 3822.6 122.712C3819.55 119.66 3819.55 114.715 3822.6 111.663L3892.91 41.3506C3895.96 38.3008 3900.91 38.3008 3903.96 41.3506C3907.01 44.4023 3907.01 49.3477 3903.96 52.3994L3833.65 122.712C3832.12 124.237 3830.13 125 3828.13 125Z" fill="#E6C067"/>
<path d="M3883.14 487.119C3860.25 500.47 3828.94 484.748 3820.36 455.604L3818.15 448.089C3815.54 439.225 3811.06 430.892 3805.08 423.785C3790.45 406.386 3792.7 380.876 3809.74 370.934C3820.78 364.491 3835.25 366.482 3846.28 375.961L3853.31 382.001C3867.01 393.779 3879.55 407.108 3890.67 421.705C3907.65 444.001 3904.1 474.89 3883.14 487.119Z" fill="#4D5166"/>
<path d="M3616.86 487.119C3639.75 500.47 3671.06 484.748 3679.64 455.604L3681.85 448.089C3684.46 439.225 3688.94 430.892 3694.92 423.785C3709.55 406.386 3707.3 380.876 3690.26 370.934C3679.22 364.491 3664.75 366.482 3653.72 375.961L3646.69 382.001C3632.99 393.779 3620.45 407.108 3609.33 421.705C3592.35 444.001 3595.9 474.89 3616.86 487.119Z" fill="#4D5166"/>
<path d="M3983.68 324.154C3967.22 345.859 3934.74 346.317 3917.68 325.085C3895.38 297.339 3868.67 273.448 3838.61 254.369L3824.57 245.455C3809.05 235.602 3805.27 214.587 3816.38 199.939C3825.66 187.698 3842.43 183.963 3856.03 191.106L3870.8 198.867C3907.52 218.151 3942.57 240.435 3975.61 265.491C3994.04 279.464 3997.65 305.729 3983.68 324.154Z" fill="#4D5166"/>
<path d="M3516.32 324.154C3532.78 345.859 3565.26 346.317 3582.32 325.085C3604.62 297.339 3631.33 273.448 3661.39 254.369L3675.43 245.455C3690.95 235.602 3694.73 214.587 3683.62 199.939C3674.34 187.698 3657.57 183.963 3643.97 191.106L3629.2 198.867C3592.48 218.151 3557.43 240.435 3524.39 265.491C3505.96 279.464 3502.35 305.729 3516.32 324.154Z" fill="#4D5166"/>
<path d="M3750 421.875C3814.72 421.875 3867.19 358.915 3867.19 281.25C3867.19 203.585 3814.72 140.625 3750 140.625C3685.28 140.625 3632.81 203.585 3632.81 281.25C3632.81 358.915 3685.28 421.875 3750 421.875Z" fill="#747A99"/>
<path d="M3750 210.938C3806.09 210.938 3851.56 165.466 3851.56 109.375C3851.56 53.2836 3806.09 7.8125 3750 7.8125C3693.91 7.8125 3648.44 53.2836 3648.44 109.375C3648.44 165.466 3693.91 210.938 3750 210.938Z" fill="#4D5166"/>
<path d="M3710.94 109.375C3723.88 109.375 3734.38 98.8817 3734.38 85.9375C3734.38 72.9933 3723.88 62.5 3710.94 62.5C3697.99 62.5 3687.5 72.9933 3687.5 85.9375C3687.5 98.8817 3697.99 109.375 3710.94 109.375Z" fill="#E6C067"/>
<path d="M3789.06 109.375C3802.01 109.375 3812.5 98.8817 3812.5 85.9375C3812.5 72.9933 3802.01 62.5 3789.06 62.5C3776.12 62.5 3765.62 72.9933 3765.62 85.9375C3765.62 98.8817 3776.12 109.375 3789.06 109.375Z" fill="#E6C067"/>
<path d="M3804.69 171.875H3695.31C3691 171.875 3687.5 168.377 3687.5 164.062C3687.5 159.748 3691 156.25 3695.31 156.25H3804.69C3809 156.25 3812.5 159.748 3812.5 164.062C3812.5 168.377 3809 171.875 3804.69 171.875Z" fill="#FF666F"/>
<path d="M3750 187.5C3745.69 187.5 3742.19 184.002 3742.19 179.688V148.438C3742.19 144.123 3745.69 140.625 3750 140.625C3754.31 140.625 3757.81 144.123 3757.81 148.438V179.688C3757.81 184.002 3754.31 187.5 3750 187.5Z" fill="#FF666F"/>
<path d="M3773.44 187.5C3769.12 187.5 3765.62 184.002 3765.62 179.688V148.438C3765.62 144.123 3769.12 140.625 3773.44 140.625C3777.75 140.625 3781.25 144.123 3781.25 148.438V179.688C3781.25 184.002 3777.75 187.5 3773.44 187.5Z" fill="#FF666F"/>
<path d="M3796.88 187.5C3792.56 187.5 3789.06 184.002 3789.06 179.688V148.438C3789.06 144.123 3792.56 140.625 3796.88 140.625C3801.19 140.625 3804.69 144.123 3804.69 148.438V179.688C3804.69 184.002 3801.19 187.5 3796.88 187.5Z" fill="#FF666F"/>
<path d="M3726.56 187.5C3722.25 187.5 3718.75 184.002 3718.75 179.688V148.438C3718.75 144.123 3722.25 140.625 3726.56 140.625C3730.88 140.625 3734.38 144.123 3734.38 148.438V179.688C3734.38 184.002 3730.88 187.5 3726.56 187.5Z" fill="#FF666F"/>
<path d="M3703.12 187.5C3698.81 187.5 3695.31 184.002 3695.31 179.688V148.438C3695.31 144.123 3698.81 140.625 3703.12 140.625C3707.44 140.625 3710.94 144.123 3710.94 148.438V179.688C3710.94 184.002 3707.44 187.5 3703.12 187.5Z" fill="#FF666F"/>
<path d="M3750 398.438C3745.69 398.438 3742.19 394.939 3742.19 390.625V265.625C3742.19 261.311 3745.69 257.812 3750 257.812C3754.31 257.812 3757.81 261.311 3757.81 265.625V390.625C3757.81 394.939 3754.31 398.438 3750 398.438Z" fill="#FF666F"/>
<path d="M3765.62 289.062H3734.38C3730.06 289.062 3726.56 285.564 3726.56 281.25C3726.56 276.936 3730.06 273.438 3734.38 273.438H3765.62C3769.94 273.438 3773.44 276.936 3773.44 281.25C3773.44 285.564 3769.94 289.062 3765.62 289.062Z" fill="#FF666F"/>
<path d="M3765.62 312.5H3734.38C3730.06 312.5 3726.56 309.002 3726.56 304.688C3726.56 300.373 3730.06 296.875 3734.38 296.875H3765.62C3769.94 296.875 3773.44 300.373 3773.44 304.688C3773.44 309.002 3769.94 312.5 3765.62 312.5Z" fill="#FF666F"/>
<path d="M3765.62 335.938H3734.38C3730.06 335.938 3726.56 332.439 3726.56 328.125C3726.56 323.811 3730.06 320.312 3734.38 320.312H3765.62C3769.94 320.312 3773.44 323.811 3773.44 328.125C3773.44 332.439 3769.94 335.938 3765.62 335.938Z" fill="#FF666F"/>
<path d="M3765.62 359.375H3734.38C3730.06 359.375 3726.56 355.877 3726.56 351.562C3726.56 347.248 3730.06 343.75 3734.38 343.75H3765.62C3769.94 343.75 3773.44 347.248 3773.44 351.562C3773.44 355.877 3769.94 359.375 3765.62 359.375Z" fill="#FF666F"/>
<path d="M3765.62 382.812H3734.38C3730.06 382.812 3726.56 379.314 3726.56 375C3726.56 370.686 3730.06 367.188 3734.38 367.188H3765.62C3769.94 367.188 3773.44 370.686 3773.44 375C3773.44 379.314 3769.94 382.812 3765.62 382.812Z" fill="#FF666F"/>
<path d="M3796.87 289.062C3795.11 289.062 3793.33 288.47 3791.87 287.252C3788.56 284.49 3788.11 279.563 3790.87 276.249L3829.94 229.374C3832.7 226.059 3837.63 225.61 3840.94 228.374C3844.25 231.136 3844.7 236.062 3841.94 239.377L3802.88 286.252C3801.33 288.105 3799.11 289.062 3796.87 289.062Z" fill="#E6C067"/>
<path d="M3835.94 265.625C3833.94 265.625 3831.94 264.862 3830.41 263.337L3806.98 239.899C3803.92 236.848 3803.92 231.902 3806.98 228.851C3810.03 225.801 3814.97 225.801 3818.02 228.851L3841.46 252.288C3844.51 255.34 3844.51 260.285 3841.46 263.337C3839.94 264.862 3837.94 265.625 3835.94 265.625Z" fill="#E6C067"/>
<path d="M3820.31 281.25C3818.31 281.25 3816.31 280.487 3814.79 278.962L3791.35 255.524C3788.3 252.473 3788.3 247.527 3791.35 244.476C3794.4 241.426 3799.35 241.426 3802.4 244.476L3825.84 267.913C3828.89 270.965 3828.89 275.91 3825.84 278.962C3824.31 280.487 3822.31 281.25 3820.31 281.25Z" fill="#E6C067"/>
<path d="M3570.31 273.439C3566.97 273.439 3563.88 271.281 3562.84 267.923L3531.59 166.36C3530.33 162.236 3532.64 157.865 3536.76 156.596C3540.89 155.325 3545.26 157.641 3546.53 161.766L3577.78 263.328C3579.05 267.452 3576.73 271.823 3572.61 273.093C3571.84 273.328 3571.07 273.439 3570.31 273.439Z" fill="#E6C067"/>
<path d="M3539.06 179.688C3552.01 179.688 3562.5 169.194 3562.5 156.25C3562.5 143.306 3552.01 132.812 3539.06 132.812C3526.12 132.812 3515.62 143.306 3515.62 156.25C3515.62 169.194 3526.12 179.688 3539.06 179.688Z" fill="#E65C64"/>
<path d="M3875 453.125C3873.17 453.125 3871.34 452.489 3869.86 451.192C3866.61 448.352 3866.28 443.415 3869.12 440.169L3923.81 377.669C3926.65 374.421 3931.59 374.093 3934.83 376.934C3938.08 379.774 3938.41 384.711 3935.57 387.957L3880.88 450.457C3879.34 452.222 3877.17 453.125 3875 453.125Z" fill="#E6C067"/>
<path d="M3929.69 398.438C3938.32 398.438 3945.31 391.442 3945.31 382.812C3945.31 374.183 3938.32 367.188 3929.69 367.188C3921.06 367.188 3914.06 374.183 3914.06 382.812C3914.06 391.442 3921.06 398.438 3929.69 398.438Z" fill="#E65C64"/>
<path d="M3710.93 296.875C3709.3 296.875 3707.66 296.366 3706.25 295.312L3675 271.875C3671.55 269.286 3670.85 264.389 3673.44 260.938C3676.03 257.485 3680.92 256.788 3684.37 259.374L3715.62 282.812C3719.08 285.4 3719.78 290.298 3717.19 293.749C3715.65 295.797 3713.31 296.875 3710.93 296.875Z" fill="#E6C067"/>
<path d="M3687.49 304.69C3686.32 304.69 3685.13 304.424 3684.01 303.862C3680.15 301.933 3678.58 297.24 3680.51 293.381L3696.14 262.131C3698.07 258.273 3702.76 256.709 3706.62 258.638C3710.48 260.567 3712.04 265.26 3710.11 269.119L3694.49 300.369C3693.12 303.107 3690.36 304.69 3687.49 304.69Z" fill="#E6C067"/>
<path d="M3898.44 70.3125C3911.38 70.3125 3921.88 59.8192 3921.88 46.875C3921.88 33.9308 3911.38 23.4375 3898.44 23.4375C3885.49 23.4375 3875 33.9308 3875 46.875C3875 59.8192 3885.49 70.3125 3898.44 70.3125Z" fill="#E65C64"/>
<path d="M4293.25 54.4971L4375 85.9375C4361.09 39.5674 4318.41 7.8125 4270 7.8125C4234.36 7.8125 4202.35 29.6064 4189.29 62.7627L4139.79 188.429C4119.65 239.546 4108.04 293.623 4105.43 348.501L4101.56 429.688H4390.62L4382.44 419.578C4302.36 320.655 4262.86 195.003 4271.92 68.0537C4272.68 57.5176 4283.4 50.7051 4293.25 54.4971Z" fill="#4D5166"/>
<path d="M4109.38 125C4083.49 125 4062.5 145.986 4062.5 171.875C4062.5 145.986 4041.51 125 4015.62 125C4041.51 125 4062.5 104.014 4062.5 78.125C4062.5 104.014 4083.49 125 4109.38 125Z" fill="#E6C067"/>
<path d="M4445.31 156.25C4419.42 156.25 4398.44 177.236 4398.44 203.125C4398.44 177.236 4377.45 156.25 4351.56 156.25C4377.45 156.25 4398.44 135.264 4398.44 109.375C4398.44 135.264 4419.42 156.25 4445.31 156.25Z" fill="#E6C067"/>
<path d="M4171.88 250C4145.99 250 4125 270.986 4125 296.875C4125 270.986 4104.01 250 4078.12 250C4104.01 250 4125 229.014 4125 203.125C4125 229.014 4145.99 250 4171.88 250Z" fill="#E6C067"/>
<path d="M4468.75 304.688C4442.86 304.688 4421.88 325.674 4421.88 351.562C4421.88 325.674 4400.89 304.688 4375 304.688C4400.89 304.688 4421.88 283.701 4421.88 257.812C4421.88 283.701 4442.86 304.688 4468.75 304.688Z" fill="#E6C067"/>
<path d="M4484.38 476.562C4412.18 492.033 4337.63 492.993 4265.06 479.386L4250 476.562C4177.8 461.092 4103.25 460.132 4030.68 473.739L4015.62 476.562L4025.3 465.478C4079.48 403.422 4162.31 367.188 4250 367.188C4337.69 367.188 4420.52 403.422 4474.7 465.478L4484.38 476.562Z" fill="#4D5166"/>
<path d="M4361.3 384.105L4308.49 402.5C4236.95 427.423 4152.3 431.866 4078.12 415.38L4093.77 349.98C4167.94 366.466 4229.51 361.929 4301.05 337.007L4335.94 318.501L4361.3 384.105Z" fill="#E65C64"/>
<path d="M4255.61 423.703L4161.86 434.998C4153.48 436.008 4145.86 430.031 4144.85 421.65L4137.3 358.927C4136.29 350.545 4142.26 342.932 4150.64 341.922L4244.39 330.627C4252.78 329.617 4260.39 335.594 4261.4 343.975L4268.96 406.698C4269.96 415.08 4263.99 422.693 4255.61 423.703Z" fill="#E6C067"/>
<path d="M4236.74 402.37L4175.12 409.794C4170.72 410.324 4166.72 407.186 4166.19 402.782L4162.5 372.188C4161.97 367.785 4165.11 363.786 4169.51 363.256L4231.13 355.832C4235.54 355.302 4239.53 358.44 4240.06 362.844L4243.75 393.438C4244.28 397.84 4241.14 401.839 4236.74 402.37Z" fill="#973D42"/>
<path d="M4141.06 398.102C4137.17 398.102 4133.8 395.189 4133.32 391.223C4132.8 386.938 4135.86 383.048 4140.14 382.532L4186.68 376.926C4190.95 376.403 4194.85 379.464 4195.37 383.747C4195.88 388.03 4192.83 391.922 4188.55 392.437L4142.01 398.044C4141.69 398.083 4141.38 398.102 4141.06 398.102Z" fill="#2E303D"/>
</g>
<defs>
<clipPath id="clip0_1_2">
<rect width="4500" height="500" fill="white"/>
</clipPath>
</defs>
</svg>
