<svg width="500" height="500" viewBox="0 0 500 500" fill="none" xmlns="http://www.w3.org/2000/svg">
<path d="M343.012 192.335L328.125 195.312V125H357.451C362.828 125 367.188 129.359 367.188 134.736V162.846C367.188 177.181 357.068 189.523 343.012 192.335Z" fill="#E6C067"/>
<path d="M156.988 192.335L171.875 195.312V125H142.549C137.172 125 132.812 129.359 132.812 134.736V162.846C132.812 177.181 142.932 189.523 156.988 192.335Z" fill="#E6C067"/>
<path d="M384.519 315.326L296.875 296.875H203.125L115.481 315.326C80.0498 322.785 54.6875 354.044 54.6875 390.251V492.188H445.312V390.251C445.312 354.044 419.95 322.785 384.519 315.326Z" fill="#4D5166"/>
<path d="M270.794 320.312H229.207C214.802 320.312 203.125 308.636 203.125 294.231V257.812H296.875V294.231C296.875 308.636 285.198 320.312 270.794 320.312Z" fill="#E6C067"/>
<path d="M102.608 156.886L156.251 146.238L150.166 115.585L96.5235 126.233L102.608 156.886Z" fill="#E65C64"/>
<path d="M98.7011 173.604L112.604 170.843C117.229 169.925 120.234 165.431 119.316 160.806L110.471 116.251C109.553 111.626 105.059 108.621 100.434 109.539L86.5302 112.3C81.9052 113.218 78.9004 117.712 79.8183 122.337L88.664 166.892C89.582 171.518 94.0761 174.522 98.7011 173.604Z" fill="#993D43"/>
<path d="M390.796 54.0502L337.252 65.1845L343.614 95.7814L397.159 84.647L390.796 54.0502Z" fill="#E65C64"/>
<path d="M164.062 62.5V213.729C164.062 228.259 173.863 240.698 187.5 244.402C187.5 256.123 197.002 265.625 208.723 265.625H291.277C302.998 265.625 312.5 256.123 312.5 244.402C326.137 240.698 335.938 228.259 335.938 213.729V62.5H164.062Z" fill="#FFD572"/>
<path d="M148.438 33.8369V149.546C148.438 156.687 155.434 161.73 162.209 159.472C167.981 157.548 171.875 152.145 171.875 146.061V86.4687C171.875 77.5459 179.108 70.3125 188.031 70.3125H311.968C320.892 70.3125 328.125 77.5459 328.125 86.4687V146.061C328.125 152.145 332.019 157.547 337.791 159.472C344.566 161.73 351.562 156.687 351.562 149.546V33.8369C351.562 19.4639 339.911 7.8125 325.538 7.8125H174.462C160.089 7.8125 148.438 19.4639 148.438 33.8369Z" fill="#4D5166"/>
<path d="M304.688 109.375H195.312C190.998 109.375 187.5 105.877 187.5 101.562C187.5 97.248 190.998 93.75 195.312 93.75H304.688C309.002 93.75 312.5 97.248 312.5 101.562C312.5 105.877 309.002 109.375 304.688 109.375Z" fill="#993D43"/>
<path d="M296.875 117.188C292.561 117.188 289.062 113.689 289.062 109.375V93.75C289.062 89.4355 292.561 85.9375 296.875 85.9375C301.189 85.9375 304.688 89.4355 304.688 93.75V109.375C304.688 113.689 301.189 117.188 296.875 117.188Z" fill="#993D43"/>
<path d="M273.438 117.188C269.123 117.188 265.625 113.689 265.625 109.375V93.75C265.625 89.4355 269.123 85.9375 273.438 85.9375C277.752 85.9375 281.25 89.4355 281.25 93.75V109.375C281.25 113.689 277.752 117.188 273.438 117.188Z" fill="#993D43"/>
<path d="M250 117.188C245.686 117.188 242.188 113.689 242.188 109.375V93.75C242.188 89.4355 245.686 85.9375 250 85.9375C254.314 85.9375 257.812 89.4355 257.812 93.75V109.375C257.812 113.689 254.314 117.188 250 117.188Z" fill="#993D43"/>
<path d="M226.562 117.188C222.248 117.188 218.75 113.689 218.75 109.375V93.75C218.75 89.4355 222.248 85.9375 226.562 85.9375C230.877 85.9375 234.375 89.4355 234.375 93.75V109.375C234.375 113.689 230.877 117.188 226.562 117.188Z" fill="#993D43"/>
<path d="M203.125 117.188C198.811 117.188 195.312 113.689 195.312 109.375V93.75C195.312 89.4355 198.811 85.9375 203.125 85.9375C207.439 85.9375 210.938 89.4355 210.938 93.75V109.375C210.938 113.689 207.439 117.188 203.125 117.188Z" fill="#993D43"/>
<path d="M214.844 164.062C207.846 164.062 201.632 159.584 199.419 152.945L195.312 140.625H234.375L230.269 152.945C228.056 159.584 221.842 164.062 214.844 164.062Z" fill="#4D5166"/>
<path d="M285.156 164.062C278.158 164.062 271.944 159.584 269.731 152.945L265.625 140.625H304.688L300.581 152.945C298.368 159.584 292.154 164.062 285.156 164.062Z" fill="#4D5166"/>
<path d="M269.335 234.375H230.665C223.662 234.375 217.559 229.609 215.86 222.815L210.938 203.125H289.062L284.14 222.815C282.441 229.609 276.338 234.375 269.335 234.375Z" fill="#4D5166"/>
<path d="M407.262 98.4961L393.384 101.382C388.768 102.342 384.247 99.3779 383.286 94.7617L374.037 50.2891C373.077 45.6729 376.041 41.1523 380.657 40.1914L394.535 37.3057C399.151 36.3457 403.672 39.3096 404.633 43.9258L413.882 88.3984C414.842 93.0156 411.878 97.5361 407.262 98.4961Z" fill="#993D43"/>
<path d="M250 492.188L187.5 335.938C226.845 355.609 273.155 355.609 312.5 335.938L250 492.188Z" fill="#E65C64"/>
<path d="M250 492.188L312.5 289.062L375 304.688L335.938 328.125L367.188 359.375L250 492.188Z" fill="#2E303D"/>
<path d="M250 492.188L187.5 289.062L125 304.688L164.062 328.125L132.812 359.375L250 492.188Z" fill="#2E303D"/>
<path d="M226.562 203.125V210.938C226.562 215.252 230.061 218.75 234.375 218.75C238.689 218.75 242.188 215.252 242.188 210.938V203.125H226.562Z" fill="#2E303D"/>
<path d="M257.812 203.125V210.938C257.812 215.252 261.311 218.75 265.625 218.75C269.939 218.75 273.438 215.252 273.438 210.938V203.125H257.812Z" fill="#2E303D"/>
<path d="M250 218.75C245.686 218.75 242.188 222.248 242.188 226.562V234.375H257.812V226.562C257.812 222.248 254.314 218.75 250 218.75Z" fill="#2E303D"/>
<path d="M273.437 54.6895C270.165 54.6895 267.117 52.6191 266.025 49.3457C264.662 45.252 266.873 40.8271 270.967 39.4629L317.842 23.8379C321.939 22.4746 326.36 24.6865 327.725 28.7793C329.088 32.873 326.877 37.2979 322.783 38.6621L275.908 54.2871C275.088 54.5596 274.255 54.6895 273.437 54.6895Z" fill="#A7B0DE"/>
<path d="M289.068 54.6895C286.202 54.6895 283.443 53.1064 282.075 50.3691L274.263 34.7441C272.333 30.8848 273.897 26.1914 277.756 24.2627C281.614 22.334 286.309 23.8975 288.237 27.7559L296.05 43.3809C297.979 47.2402 296.415 51.9336 292.557 53.8623C291.436 54.4228 290.242 54.6895 289.068 54.6895Z" fill="#A7B0DE"/>
<path d="M312.506 54.6895C309.64 54.6895 306.881 53.1064 305.513 50.3691L297.7 34.7441C295.771 30.8848 297.335 26.1914 301.193 24.2627C305.053 22.333 309.746 23.8975 311.675 27.7559L319.487 43.3809C321.417 47.2402 319.853 51.9336 315.994 53.8623C314.873 54.4229 313.68 54.6895 312.506 54.6895Z" fill="#A7B0DE"/>
</svg>
