<svg width="500" height="500" viewBox="0 0 500 500" fill="none" xmlns="http://www.w3.org/2000/svg">
<path d="M406.25 492.188H93.75L109.375 343.75H390.625L406.25 492.188Z" fill="#4D5166"/>
<path d="M250 414.062C362.183 414.062 453.125 323.12 453.125 210.938C453.125 98.7547 362.183 7.8125 250 7.8125C137.817 7.8125 46.875 98.7547 46.875 210.938C46.875 323.12 137.817 414.062 250 414.062Z" fill="#E2E2E2"/>
<path d="M413.318 203.125C409.335 203.125 405.933 200.093 405.55 196.047C402.271 161.339 387.15 128.294 362.973 102.997C338.87 77.7783 306.679 61.1836 272.331 56.2695C268.06 55.6592 265.093 51.7002 265.704 47.4297C266.314 43.1582 270.274 40.1934 274.544 40.8018C312.343 46.209 347.76 64.4629 374.27 92.2002C400.864 120.027 417.498 156.385 421.106 194.576C421.512 198.871 418.359 202.683 414.063 203.089C413.813 203.114 413.564 203.125 413.318 203.125Z" fill="#999999"/>
<path d="M127.716 328.125C125.57 328.125 123.435 327.247 121.892 325.522C103.112 304.54 89.6729 279.065 83.0264 251.853C82.002 247.661 84.5704 243.434 88.7618 242.41C92.9522 241.389 97.1807 243.954 98.2051 248.146C104.245 272.873 116.461 296.026 133.534 315.103C136.412 318.317 136.139 323.257 132.923 326.134C131.433 327.469 129.571 328.125 127.716 328.125Z" fill="#999999"/>
<path d="M367.188 445.312C291.96 475.403 208.04 475.403 132.812 445.312V414.062C208.04 444.153 291.96 444.153 367.188 414.062V445.312Z" fill="#E65C64"/>
<path d="M187.063 239.794L201.413 268.871L233.502 273.533L210.282 296.167L215.764 328.125L187.063 313.036L158.363 328.125L163.844 296.167L140.625 273.533L172.713 268.871L187.063 239.794Z" fill="#E6C067"/>
<path d="M311.328 132.048L331.004 171.915L375 178.308L343.164 209.34L350.68 253.158L311.328 232.47L271.978 253.158L279.493 209.34L247.657 178.308L291.653 171.915L311.328 132.048Z" fill="#E6C067"/>
<path d="M116.751 138.231L131.101 167.309L163.189 171.971L139.97 194.604L145.451 226.563L116.751 211.474L88.0508 226.563L93.5313 194.604L70.3125 171.971L102.4 167.309L116.751 138.231Z" fill="#E6C067"/>
<path d="M265.625 328.125C291.514 328.125 312.5 349.111 312.5 375C312.5 349.111 333.486 328.125 359.375 328.125C333.486 328.125 312.5 307.139 312.5 281.25C312.5 307.139 291.514 328.125 265.625 328.125Z" fill="#E65C64"/>
<path d="M62.5 54.6875C88.3887 54.6875 109.375 75.6738 109.375 101.562C109.375 75.6738 130.361 54.6875 156.25 54.6875C130.361 54.6875 109.375 33.7012 109.375 7.8125C109.375 33.7012 88.3887 54.6875 62.5 54.6875Z" fill="#E65C64"/>
<path d="M179.688 117.188C205.576 117.188 226.562 138.174 226.562 164.062C226.562 138.174 247.549 117.188 273.438 117.188C247.549 117.188 226.562 96.2012 226.562 70.3125C226.562 96.2012 205.576 117.188 179.688 117.188Z" fill="#E65C64"/>
<path d="M359.375 289.929C393.415 289.929 421.009 317.523 421.009 351.562C421.009 317.523 448.604 289.929 482.643 289.929C448.604 289.929 421.009 262.334 421.009 228.295C421.009 262.334 393.415 289.929 359.375 289.929Z" fill="#E6C067"/>
<path d="M407.981 46.0088C424.762 46.0088 438.365 59.6123 438.365 76.3926C438.365 59.6123 451.969 46.0088 468.749 46.0088C451.969 46.0088 438.365 32.4053 438.365 15.625C438.366 32.4053 424.763 46.0088 407.981 46.0088Z" fill="#E65C64"/>
<path d="M15.625 368.054C32.4053 368.054 46.0088 381.657 46.0088 398.438C46.0088 381.657 59.6123 368.054 76.3926 368.054C59.6123 368.054 46.0088 354.45 46.0088 337.67C46.0088 354.45 32.4053 368.054 15.625 368.054Z" fill="#E65C64"/>
<path d="M431.419 391.491C448.199 391.491 461.803 405.095 461.803 421.875C461.803 405.095 475.406 391.491 492.187 391.491C475.406 391.491 461.803 377.888 461.803 361.107C461.804 377.888 448.2 391.491 431.419 391.491Z" fill="#E65C64"/>
</svg>
