<svg width="500" height="500" viewBox="0 0 500 500" fill="none" xmlns="http://www.w3.org/2000/svg">
<path d="M250 492.188C327.665 492.188 390.625 418.734 390.625 328.125C390.625 237.516 327.665 164.062 250 164.062C172.335 164.062 109.375 237.516 109.375 328.125C109.375 418.734 172.335 492.188 250 492.188Z" fill="#797FA0"/>
<path d="M422.435 297.393C444.18 360.637 410.091 429.688 410.091 429.688C410.091 429.688 340.747 396.198 319.003 332.954C297.258 269.71 302.785 210.479 331.347 200.659C359.908 190.839 400.689 234.147 422.435 297.393Z" fill="#4D5166"/>
<path d="M424.268 387.883C400.78 387.141 370.916 353.643 353.652 306.555C337.356 262.099 337.462 219.621 352.204 201.756C377.351 211.419 405.602 248.427 422.439 297.389C433.401 329.269 430.168 362.632 424.268 387.883Z" fill="#323542"/>
<path d="M77.5655 297.393C55.8213 360.637 89.9102 429.688 89.9102 429.688C89.9102 429.688 159.254 396.198 180.998 332.954C202.742 269.71 197.216 210.479 168.654 200.659C140.092 190.839 99.3106 234.147 77.5655 297.393Z" fill="#4D5166"/>
<path d="M75.7325 387.883C99.2199 387.141 129.084 353.643 146.348 306.555C162.645 262.099 162.538 219.621 147.796 201.756C122.65 211.419 94.3986 248.427 77.5616 297.389C66.5987 329.269 69.8322 362.632 75.7325 387.883Z" fill="#323542"/>
<path d="M363.815 7.8125C363.815 7.8125 308.565 38.1523 293.037 91.0322L378.359 116.088C393.889 63.208 363.815 7.8125 363.815 7.8125Z" fill="#4D5166"/>
<path d="M136.185 7.8125C136.185 7.8125 191.435 38.1523 206.963 91.0322L121.641 116.088C106.111 63.208 136.185 7.8125 136.185 7.8125Z" fill="#4D5166"/>
<path d="M311.304 248.005C270.985 238.172 229.016 238.172 188.697 248.005C141.599 259.492 97.4835 219.775 101.864 169.828C107.285 108.023 157.278 60.7012 217.15 60.7012H282.851C342.723 60.7012 392.716 108.023 398.137 169.828C402.517 219.775 358.402 259.492 311.304 248.005Z" fill="#8A91B6"/>
<path d="M203.125 226.562C232.634 211.809 267.366 211.809 296.875 226.562L250 296.875L203.125 226.562Z" fill="#E6C067"/>
<path d="M250 125C245.686 125 242.188 121.502 242.188 117.188C242.188 108.572 235.178 101.562 226.562 101.562H210.938C202.322 101.562 195.312 94.5527 195.312 85.9375C195.312 81.623 198.811 78.125 203.125 78.125C207.439 78.125 210.938 81.623 210.938 85.9375C210.938 85.9443 210.938 85.9473 210.938 85.9473L226.562 85.9375C235.886 85.9375 244.27 90.042 250 96.5381C255.73 90.042 264.114 85.9375 273.438 85.9375H289.062C289.062 81.623 292.561 78.125 296.875 78.125C301.189 78.125 304.688 81.623 304.688 85.9375C304.688 94.5527 297.678 101.562 289.062 101.562H273.438C264.822 101.562 257.812 108.572 257.812 117.188C257.812 121.502 254.314 125 250 125Z" fill="#323542"/>
<path d="M320.312 210.938C346.201 210.938 367.188 186.453 367.188 156.25C367.188 126.047 346.201 101.562 320.312 101.562C294.424 101.562 273.438 126.047 273.438 156.25C273.438 186.453 294.424 210.938 320.312 210.938Z" fill="#4D5166"/>
<path d="M179.688 210.938C205.576 210.938 226.562 186.453 226.562 156.25C226.562 126.047 205.576 101.562 179.688 101.562C153.799 101.562 132.812 126.047 132.812 156.25C132.812 186.453 153.799 210.938 179.688 210.938Z" fill="#4D5166"/>
<path d="M278.721 171.197L331.479 131.629L335.315 148.893C339.505 167.743 321.868 184.141 303.372 178.592L278.721 171.197Z" fill="#E65C64"/>
<path d="M221.279 171.197L168.521 131.629L164.685 148.893C160.495 167.743 178.132 184.141 196.628 178.592L221.279 171.197Z" fill="#E65C64"/>
<path d="M304.688 421.875C304.688 445.42 300.371 467.09 293.135 484.316C279.541 489.434 265.049 492.188 250 492.188C234.951 492.188 220.459 489.434 206.865 484.316C199.629 467.09 195.312 445.42 195.312 421.875C195.312 365.781 219.795 320.312 250 320.312C280.205 320.312 304.688 365.781 304.688 421.875Z" fill="#E65C64"/>
<path d="M325.513 429.688H315.112C292.096 429.688 273.438 448.346 273.438 471.362C273.438 482.863 282.762 492.188 294.263 492.188H346.362C357.863 492.188 367.188 482.863 367.188 471.362C367.188 448.346 348.529 429.688 325.513 429.688Z" fill="#4D5166"/>
<path d="M320.312 492.188C315.998 492.188 312.5 488.689 312.5 484.375V468.75C312.5 464.436 315.998 460.938 320.312 460.938C324.627 460.938 328.125 464.436 328.125 468.75V484.375C328.125 488.689 324.627 492.188 320.312 492.188Z" fill="#2E303D"/>
<path d="M351.568 492.189C348.702 492.189 345.943 490.606 344.574 487.869L336.762 472.244C334.832 468.385 336.396 463.691 340.256 461.763C344.116 459.834 348.809 461.398 350.737 465.256L358.55 480.881C360.48 484.74 358.916 489.434 355.056 491.362C353.935 491.923 352.742 492.189 351.568 492.189Z" fill="#2E303D"/>
<path d="M289.057 492.189C287.883 492.189 286.691 491.924 285.569 491.362C281.71 489.433 280.146 484.74 282.075 480.881L289.888 465.256C291.817 461.398 296.51 459.832 300.369 461.763C304.229 463.692 305.793 468.385 303.863 472.244L296.051 487.869C294.682 490.606 291.922 492.189 289.057 492.189Z" fill="#2E303D"/>
<path d="M174.487 429.688H184.888C207.904 429.688 226.562 448.346 226.562 471.362C226.562 482.863 217.238 492.188 205.737 492.188H153.638C142.137 492.188 132.812 482.863 132.812 471.362C132.812 448.346 151.471 429.688 174.487 429.688Z" fill="#4D5166"/>
<path d="M179.688 492.188C175.373 492.188 171.875 488.689 171.875 484.375V468.75C171.875 464.436 175.373 460.938 179.688 460.938C184.002 460.938 187.5 464.436 187.5 468.75V484.375C187.5 488.689 184.002 492.188 179.688 492.188Z" fill="#2E303D"/>
<path d="M148.432 492.189C147.258 492.189 146.066 491.924 144.944 491.362C141.085 489.433 139.521 484.74 141.45 480.881L149.263 465.256C151.191 461.398 155.885 459.832 159.744 461.763C163.604 463.692 165.168 468.385 163.238 472.244L155.426 487.869C154.057 490.606 151.297 492.189 148.432 492.189Z" fill="#2E303D"/>
<path d="M210.943 492.189C208.077 492.189 205.318 490.606 203.949 487.869L196.137 472.244C194.207 468.385 195.771 463.691 199.631 461.763C203.491 459.833 208.184 461.398 210.112 465.256L217.925 480.881C219.855 484.74 218.291 489.434 214.431 491.362C213.31 491.923 212.117 492.189 210.943 492.189Z" fill="#2E303D"/>
</svg>
