<svg width="500" height="500" viewBox="0 0 500 500" fill="none" xmlns="http://www.w3.org/2000/svg">
<path d="M460.938 187.5H421.875V257.812H460.938V187.5Z" fill="#A9B2E0"/>
<path d="M460.938 156.25H421.875V226.562H460.938V156.25Z" fill="#E6C067"/>
<path d="M460.938 125H421.875V195.312H460.938V125Z" fill="#E65C64"/>
<path d="M39.0625 445.312C39.0625 471.201 60.0488 492.188 85.9375 492.188H429.688V101.562H85.9375C60.0488 101.562 39.0625 80.5762 39.0625 54.6875V445.312Z" fill="#3B3F4E"/>
<path d="M429.688 101.562H85.9375C60.0488 101.562 39.0625 80.5762 39.0625 54.6875C39.0625 28.7988 60.0488 7.8125 85.9375 7.8125H429.688C400.941 32.4521 400.941 76.9229 429.688 101.562Z" fill="#E6C067"/>
<path d="M429.688 101.562H85.9375V492.188H429.688V101.562Z" fill="#4D5166"/>
<path d="M85.9375 140.625H76.7842C60.4473 140.625 45.0889 134.263 33.5371 122.711C30.4863 119.66 30.4863 114.714 33.5371 111.663C36.5889 108.613 41.5352 108.613 44.5859 111.664C53.1865 120.264 64.6211 125 76.7842 125H85.9375C90.252 125 93.75 128.498 93.75 132.812C93.75 137.127 90.252 140.625 85.9375 140.625Z" fill="#272933"/>
<path d="M85.9375 179.688H76.7842C60.4473 179.688 45.0889 173.325 33.5371 161.773C30.4863 158.723 30.4863 153.776 33.5371 150.726C36.5889 147.676 41.5352 147.676 44.5859 150.727C53.1865 159.326 64.6211 164.063 76.7842 164.063H85.9375C90.252 164.063 93.75 167.561 93.75 171.875C93.75 176.189 90.252 179.688 85.9375 179.688Z" fill="#272933"/>
<path d="M85.9375 218.75H76.7842C60.4473 218.75 45.0889 212.388 33.5371 200.836C30.4863 197.785 30.4863 192.839 33.5371 189.788C36.5889 186.738 41.5352 186.738 44.5859 189.789C53.1865 198.389 64.6211 203.125 76.7842 203.125H85.9375C90.252 203.125 93.75 206.623 93.75 210.938C93.75 215.252 90.252 218.75 85.9375 218.75Z" fill="#272933"/>
<path d="M85.9375 257.813H76.7842C60.4473 257.813 45.0889 251.45 33.5371 239.898C30.4863 236.848 30.4863 231.901 33.5371 228.851C36.5889 225.801 41.5352 225.801 44.5859 228.852C53.1865 237.451 64.6211 242.188 76.7842 242.188H85.9375C90.252 242.188 93.75 245.686 93.75 250C93.75 254.314 90.252 257.813 85.9375 257.813Z" fill="#272933"/>
<path d="M85.9375 296.875H76.7842C60.4473 296.875 45.0889 290.513 33.5371 278.961C30.4863 275.91 30.4863 270.964 33.5371 267.913C36.5889 264.863 41.5352 264.863 44.5859 267.914C53.1865 276.514 64.6211 281.25 76.7842 281.25H85.9375C90.252 281.25 93.75 284.748 93.75 289.062C93.75 293.377 90.252 296.875 85.9375 296.875Z" fill="#272933"/>
<path d="M85.9375 335.937H76.7842C60.4473 335.937 45.0889 329.575 33.5371 318.023C30.4863 314.973 30.4863 310.026 33.5371 306.976C36.5889 303.926 41.5352 303.926 44.5859 306.977C53.1865 315.576 64.6211 320.312 76.7842 320.312H85.9375C90.252 320.312 93.75 323.811 93.75 328.125C93.75 332.439 90.252 335.937 85.9375 335.937Z" fill="#272933"/>
<path d="M85.9375 375H76.7842C60.4473 375 45.0889 368.638 33.5371 357.086C30.4863 354.035 30.4863 349.089 33.5371 346.038C36.5889 342.988 41.5352 342.988 44.5859 346.039C53.1865 354.639 64.6211 359.375 76.7842 359.375H85.9375C90.252 359.375 93.75 362.873 93.75 367.187C93.75 371.502 90.252 375 85.9375 375Z" fill="#272933"/>
<path d="M85.9375 414.063H76.7842C60.4473 414.063 45.0889 407.7 33.5371 396.148C30.4863 393.098 30.4863 388.151 33.5371 385.101C36.5889 382.052 41.5352 382.051 44.5859 385.102C53.1865 393.701 64.6211 398.438 76.7842 398.438H85.9375C90.252 398.438 93.75 401.936 93.75 406.25C93.75 410.564 90.252 414.063 85.9375 414.063Z" fill="#272933"/>
<path d="M85.9375 453.125H76.7842C60.4473 453.125 45.0889 446.763 33.5371 435.211C30.4863 432.16 30.4863 427.214 33.5371 424.163C36.5889 421.113 41.5352 421.113 44.5859 424.164C53.1865 432.764 64.6211 437.5 76.7842 437.5H85.9375C90.252 437.5 93.75 440.998 93.75 445.312C93.75 449.627 90.252 453.125 85.9375 453.125Z" fill="#272933"/>
<path d="M257.812 382.812C326.848 382.812 382.812 326.848 382.812 257.812C382.812 188.777 326.848 132.812 257.812 132.812C188.777 132.812 132.812 188.777 132.812 257.812C132.812 326.848 188.777 382.812 257.812 382.812Z" fill="#E65C64"/>
<path d="M408.125 54.6875C408.125 62.666 409.658 70.6348 412.725 78.125H93.75C87.2852 78.125 81.4258 75.498 77.1777 71.2598C72.9395 67.0117 70.3125 61.1523 70.3125 54.6875C70.3125 41.748 80.8105 31.25 93.75 31.25H412.725C409.658 38.7402 408.125 46.709 408.125 54.6875Z" fill="#937B42"/>
<path d="M375 429.688H140.625V460.938H375V429.688Z" fill="#E6C067"/>
<path d="M343.75 375C361.009 375 375 388.991 375 406.25C375 388.991 388.991 375 406.25 375C388.991 375 375 361.009 375 343.75C375 361.009 361.009 375 343.75 375Z" fill="#E6C067"/>
<path d="M171.875 375C154.616 375 140.625 388.991 140.625 406.25C140.625 388.991 126.634 375 109.375 375C126.634 375 140.625 361.009 140.625 343.75C140.625 361.009 154.616 375 171.875 375Z" fill="#E6C067"/>
<path d="M408.125 54.6875C408.125 57.2949 408.291 59.9121 408.623 62.5H101.562C97.2461 62.5 93.75 59.0039 93.75 54.6875C93.75 50.3711 97.2461 46.875 101.562 46.875H408.623C408.291 49.4629 408.125 52.0801 408.125 54.6875Z" fill="#5B4C29"/>
<path d="M343.75 312.5H171.875C169.049 312.5 166.443 310.975 165.061 308.509C163.678 306.045 163.734 303.025 165.208 300.613L251.146 159.988C252.565 157.666 255.091 156.25 257.813 156.25C260.534 156.25 263.06 157.666 264.479 159.988L350.416 300.613C351.89 303.025 351.946 306.045 350.563 308.509C349.182 310.975 346.576 312.5 343.75 312.5ZM185.806 296.875H329.82L257.813 179.045L185.806 296.875Z" fill="#2F323E"/>
<path d="M257.813 359.375C255.091 359.375 252.565 357.959 251.147 355.637L165.209 215.012C163.735 212.6 163.679 209.58 165.062 207.116C166.444 204.651 169.05 203.125 171.876 203.125H343.751C346.577 203.125 349.183 204.65 350.565 207.116C351.948 209.58 351.892 212.6 350.418 215.012L264.481 355.637C263.06 357.959 260.534 359.375 257.813 359.375ZM185.806 218.75L257.813 336.58L329.819 218.75H185.806Z" fill="#2F323E"/>
</svg>
