<svg width="500" height="500" viewBox="0 0 500 500" fill="none" xmlns="http://www.w3.org/2000/svg">
<path d="M328.125 125C326.125 125 324.126 124.237 322.601 122.712C319.55 119.66 319.55 114.715 322.601 111.663L392.913 41.3506C395.965 38.3008 400.91 38.3008 403.962 41.3506C407.013 44.4023 407.013 49.3477 403.962 52.3994L333.649 122.712C332.124 124.237 330.125 125 328.125 125Z" fill="#E6C067"/>
<path d="M383.136 487.119C360.254 500.47 328.937 484.748 320.358 455.604L318.147 448.089C315.537 439.225 311.059 430.892 305.082 423.785C290.45 406.386 292.698 380.876 309.739 370.934C320.781 364.491 335.253 366.482 346.28 375.961L353.307 382.001C367.01 393.779 379.553 407.108 390.671 421.705C407.653 444.001 404.096 474.89 383.136 487.119Z" fill="#4D5166"/>
<path d="M116.864 487.119C139.746 500.47 171.063 484.748 179.642 455.604L181.853 448.089C184.463 439.225 188.941 430.892 194.918 423.785C209.55 406.386 207.302 380.876 190.261 370.934C179.219 364.491 164.747 366.482 153.72 375.961L146.693 382.001C132.99 393.779 120.447 407.108 109.329 421.705C92.3466 444.001 95.9043 474.89 116.864 487.119Z" fill="#4D5166"/>
<path d="M483.678 324.154C467.218 345.859 434.743 346.317 417.678 325.085C395.377 297.339 368.667 273.448 338.614 254.369L324.574 245.455C309.054 235.602 305.269 214.587 316.378 199.938C325.66 187.698 342.431 183.963 356.029 191.106L370.804 198.867C407.516 218.151 442.572 240.435 475.614 265.491C494.04 279.464 497.65 305.729 483.678 324.154Z" fill="#4D5166"/>
<path d="M16.3223 324.154C32.7822 345.859 65.2568 346.317 82.3223 325.085C104.623 297.339 131.333 273.448 161.386 254.369L175.426 245.455C190.946 235.602 194.73 214.587 183.622 199.938C174.34 187.698 157.569 183.963 143.971 191.106L129.196 198.867C92.4844 218.151 57.4277 240.435 24.3858 265.491C5.95997 279.464 2.34962 305.729 16.3223 324.154Z" fill="#4D5166"/>
<path d="M250 421.875C314.721 421.875 367.188 358.915 367.188 281.25C367.188 203.585 314.721 140.625 250 140.625C185.279 140.625 132.812 203.585 132.812 281.25C132.812 358.915 185.279 421.875 250 421.875Z" fill="#747A99"/>
<path d="M250 210.938C306.091 210.938 351.562 165.466 351.562 109.375C351.562 53.2836 306.091 7.8125 250 7.8125C193.909 7.8125 148.438 53.2836 148.438 109.375C148.438 165.466 193.909 210.938 250 210.938Z" fill="#4D5166"/>
<path d="M210.938 109.375C223.882 109.375 234.375 98.8817 234.375 85.9375C234.375 72.9933 223.882 62.5 210.938 62.5C197.993 62.5 187.5 72.9933 187.5 85.9375C187.5 98.8817 197.993 109.375 210.938 109.375Z" fill="#E6C067"/>
<path d="M289.062 109.375C302.007 109.375 312.5 98.8817 312.5 85.9375C312.5 72.9933 302.007 62.5 289.062 62.5C276.118 62.5 265.625 72.9933 265.625 85.9375C265.625 98.8817 276.118 109.375 289.062 109.375Z" fill="#E6C067"/>
<path d="M304.688 171.875H195.312C190.998 171.875 187.5 168.377 187.5 164.062C187.5 159.748 190.998 156.25 195.312 156.25H304.688C309.002 156.25 312.5 159.748 312.5 164.062C312.5 168.377 309.002 171.875 304.688 171.875Z" fill="#FF666F"/>
<path d="M250 187.5C245.686 187.5 242.188 184.002 242.188 179.688V148.438C242.188 144.123 245.686 140.625 250 140.625C254.314 140.625 257.812 144.123 257.812 148.438V179.688C257.812 184.002 254.314 187.5 250 187.5Z" fill="#FF666F"/>
<path d="M273.438 187.5C269.123 187.5 265.625 184.002 265.625 179.688V148.438C265.625 144.123 269.123 140.625 273.438 140.625C277.752 140.625 281.25 144.123 281.25 148.438V179.688C281.25 184.002 277.752 187.5 273.438 187.5Z" fill="#FF666F"/>
<path d="M296.875 187.5C292.561 187.5 289.062 184.002 289.062 179.688V148.438C289.062 144.123 292.561 140.625 296.875 140.625C301.189 140.625 304.688 144.123 304.688 148.438V179.688C304.688 184.002 301.189 187.5 296.875 187.5Z" fill="#FF666F"/>
<path d="M226.562 187.5C222.248 187.5 218.75 184.002 218.75 179.688V148.438C218.75 144.123 222.248 140.625 226.562 140.625C230.877 140.625 234.375 144.123 234.375 148.438V179.688C234.375 184.002 230.877 187.5 226.562 187.5Z" fill="#FF666F"/>
<path d="M203.125 187.5C198.811 187.5 195.312 184.002 195.312 179.688V148.438C195.312 144.123 198.811 140.625 203.125 140.625C207.439 140.625 210.938 144.123 210.938 148.438V179.688C210.938 184.002 207.439 187.5 203.125 187.5Z" fill="#FF666F"/>
<path d="M250 398.438C245.686 398.438 242.188 394.939 242.188 390.625V265.625C242.188 261.311 245.686 257.812 250 257.812C254.314 257.812 257.812 261.311 257.812 265.625V390.625C257.812 394.939 254.314 398.438 250 398.438Z" fill="#FF666F"/>
<path d="M265.625 289.062H234.375C230.061 289.062 226.562 285.564 226.562 281.25C226.562 276.936 230.061 273.438 234.375 273.438H265.625C269.939 273.438 273.438 276.936 273.438 281.25C273.438 285.564 269.939 289.062 265.625 289.062Z" fill="#FF666F"/>
<path d="M265.625 312.5H234.375C230.061 312.5 226.562 309.002 226.562 304.688C226.562 300.373 230.061 296.875 234.375 296.875H265.625C269.939 296.875 273.438 300.373 273.438 304.688C273.438 309.002 269.939 312.5 265.625 312.5Z" fill="#FF666F"/>
<path d="M265.625 335.938H234.375C230.061 335.938 226.562 332.439 226.562 328.125C226.562 323.811 230.061 320.312 234.375 320.312H265.625C269.939 320.312 273.438 323.811 273.438 328.125C273.438 332.439 269.939 335.938 265.625 335.938Z" fill="#FF666F"/>
<path d="M265.625 359.375H234.375C230.061 359.375 226.562 355.877 226.562 351.562C226.562 347.248 230.061 343.75 234.375 343.75H265.625C269.939 343.75 273.438 347.248 273.438 351.562C273.438 355.877 269.939 359.375 265.625 359.375Z" fill="#FF666F"/>
<path d="M265.625 382.812H234.375C230.061 382.812 226.562 379.314 226.562 375C226.562 370.686 230.061 367.188 234.375 367.188H265.625C269.939 367.188 273.438 370.686 273.438 375C273.438 379.314 269.939 382.812 265.625 382.812Z" fill="#FF666F"/>
<path d="M296.871 289.063C295.106 289.063 293.334 288.47 291.874 287.252C288.559 284.49 288.11 279.563 290.874 276.249L329.936 229.374C332.698 226.059 337.627 225.61 340.939 228.374C344.255 231.136 344.703 236.062 341.939 239.377L302.877 286.252C301.331 288.105 299.109 289.063 296.871 289.063Z" fill="#E6C067"/>
<path d="M335.938 265.625C333.938 265.625 331.938 264.862 330.413 263.337L306.976 239.899C303.925 236.848 303.925 231.902 306.976 228.851C310.027 225.801 314.973 225.801 318.024 228.851L341.462 252.288C344.513 255.34 344.513 260.285 341.462 263.337C339.937 264.862 337.938 265.625 335.938 265.625Z" fill="#E6C067"/>
<path d="M320.313 281.25C318.313 281.25 316.313 280.487 314.788 278.962L291.351 255.524C288.3 252.473 288.3 247.527 291.351 244.476C294.402 241.426 299.348 241.426 302.399 244.476L325.837 267.913C328.888 270.965 328.888 275.91 325.837 278.962C324.312 280.487 322.313 281.25 320.313 281.25Z" fill="#E6C067"/>
<path d="M70.3096 273.439C66.9697 273.439 63.8789 271.281 62.8447 267.923L31.5947 166.36C30.3262 162.236 32.6406 157.865 36.7646 156.596C40.8867 155.325 45.2597 157.641 46.5293 161.766L77.7793 263.328C79.0478 267.452 76.7334 271.823 72.6094 273.093C71.8447 273.328 71.0703 273.439 70.3096 273.439Z" fill="#E6C067"/>
<path d="M39.0625 179.688C52.0067 179.688 62.5 169.194 62.5 156.25C62.5 143.306 52.0067 132.812 39.0625 132.812C26.1183 132.812 15.625 143.306 15.625 156.25C15.625 169.194 26.1183 179.688 39.0625 179.688Z" fill="#E65C64"/>
<path d="M374.997 453.125C373.171 453.125 371.338 452.489 369.856 451.192C366.608 448.352 366.279 443.415 369.12 440.169L423.808 377.669C426.649 374.421 431.585 374.093 434.831 376.934C438.078 379.774 438.407 384.711 435.566 387.957L380.879 450.457C379.335 452.222 377.172 453.125 374.997 453.125Z" fill="#E6C067"/>
<path d="M429.688 398.438C438.317 398.438 445.312 391.442 445.312 382.812C445.312 374.183 438.317 367.188 429.688 367.188C421.058 367.188 414.062 374.183 414.062 382.812C414.062 391.442 421.058 398.438 429.688 398.438Z" fill="#E65C64"/>
<path d="M210.932 296.875C209.3 296.875 207.656 296.366 206.25 295.312L175 271.875C171.548 269.286 170.849 264.389 173.437 260.938C176.026 257.485 180.923 256.788 184.374 259.374L215.624 282.812C219.076 285.4 219.775 290.298 217.188 293.749C215.652 295.797 213.307 296.875 210.932 296.875Z" fill="#E6C067"/>
<path d="M187.494 304.689C186.319 304.689 185.128 304.424 184.006 303.862C180.147 301.933 178.583 297.24 180.513 293.381L196.138 262.131C198.067 258.272 202.758 256.709 206.619 258.638C210.477 260.567 212.042 265.26 210.112 269.119L194.487 300.369C193.119 303.106 190.36 304.689 187.494 304.689Z" fill="#E6C067"/>
<path d="M398.438 70.3125C411.382 70.3125 421.875 59.8192 421.875 46.875C421.875 33.9308 411.382 23.4375 398.438 23.4375C385.493 23.4375 375 33.9308 375 46.875C375 59.8192 385.493 70.3125 398.438 70.3125Z" fill="#E65C64"/>
</svg>
