<svg width="500" height="500" viewBox="0 0 500 500" fill="none" xmlns="http://www.w3.org/2000/svg">
<path d="M293.255 54.4971L375 85.9375C361.089 39.5674 318.409 7.8125 269.998 7.8125C234.362 7.8125 202.353 29.6064 189.291 62.7627L139.785 188.429C119.648 239.546 108.041 293.623 105.428 348.501L101.562 429.688H390.625L382.44 419.578C302.361 320.655 262.856 195.003 271.925 68.0537C272.678 57.5176 283.396 50.7051 293.255 54.4971Z" fill="#4D5166"/>
<path d="M109.375 125C83.4863 125 62.5 145.986 62.5 171.875C62.5 145.986 41.5137 125 15.625 125C41.5137 125 62.5 104.014 62.5 78.125C62.5 104.014 83.4863 125 109.375 125Z" fill="#E6C067"/>
<path d="M445.312 156.25C419.424 156.25 398.438 177.236 398.438 203.125C398.438 177.236 377.451 156.25 351.562 156.25C377.451 156.25 398.438 135.264 398.438 109.375C398.438 135.264 419.424 156.25 445.312 156.25Z" fill="#E6C067"/>
<path d="M171.875 250C145.986 250 125 270.986 125 296.875C125 270.986 104.014 250 78.125 250C104.014 250 125 229.014 125 203.125C125 229.014 145.986 250 171.875 250Z" fill="#E6C067"/>
<path d="M468.75 304.688C442.861 304.688 421.875 325.674 421.875 351.562C421.875 325.674 400.889 304.688 375 304.688C400.889 304.688 421.875 283.701 421.875 257.812C421.875 283.701 442.861 304.688 468.75 304.688Z" fill="#E6C067"/>
<path d="M484.375 476.562C412.18 492.033 337.628 492.993 265.058 479.386L250 476.562C177.805 461.092 103.253 460.132 30.6836 473.739L15.625 476.562L25.3027 465.478C79.4785 403.422 162.312 367.188 250 367.188C337.688 367.188 420.521 403.422 474.697 465.478L484.375 476.562Z" fill="#4D5166"/>
<path d="M361.297 384.105L308.491 402.5C236.948 427.423 152.297 431.866 78.125 415.38L93.7725 349.98C167.944 366.466 229.507 361.929 301.05 337.007L335.938 318.501L361.297 384.105Z" fill="#E65C64"/>
<path d="M255.606 423.703L161.857 434.998C153.476 436.008 145.862 430.031 144.852 421.65L137.296 358.927C136.286 350.545 142.263 342.932 150.644 341.922L244.393 330.627C252.775 329.617 260.389 335.594 261.398 343.975L268.955 406.698C269.965 415.08 263.988 422.693 255.606 423.703Z" fill="#E6C067"/>
<path d="M236.738 402.37L175.119 409.794C170.716 410.324 166.717 407.186 166.187 402.782L162.501 372.188C161.971 367.785 165.109 363.786 169.513 363.256L231.132 355.832C235.535 355.302 239.534 358.44 240.065 362.844L243.75 393.438C244.28 397.84 241.142 401.839 236.738 402.37Z" fill="#973D42"/>
<path d="M141.064 398.102C137.166 398.102 133.795 395.189 133.317 391.223C132.801 386.938 135.856 383.048 140.139 382.532L186.677 376.926C190.954 376.403 194.852 379.464 195.367 383.747C195.883 388.03 192.829 391.922 188.546 392.437L142.008 398.044C141.691 398.083 141.376 398.102 141.064 398.102Z" fill="#2E303D"/>
</svg>
